<?xml version="1.0" encoding="UTF-8"?>
<svg version="1.1" xmlns="http://www.w3.org/2000/svg" width="1536" height="1024">
<path d="M0 0 C506.88 0 1013.76 0 1536 0 C1536 337.92 1536 675.84 1536 1024 C1029.12 1024 522.24 1024 0 1024 C0 686.08 0 348.16 0 0 Z " fill="#FEFCF8" transform="translate(0,0)"/>
<path d="M0 0 C2 2 2 2 2.13525391 3.87939453 C2.08288574 4.62302246 2.03051758 5.36665039 1.9765625 6.1328125 C1.925 6.93847656 1.8734375 7.74414062 1.8203125 8.57421875 C1.75585938 9.41597656 1.69140625 10.25773437 1.625 11.125 C1.56828125 11.97449219 1.5115625 12.82398437 1.453125 13.69921875 C1.31149023 15.8001345 1.15695674 17.90017334 1 20 C4.14812522 18.12882881 7.29305448 16.25234715 10.4375 14.375 C11.31599609 13.85292969 12.19449219 13.33085938 13.09960938 12.79296875 C18.19509372 9.74695966 23.14296292 6.59680952 27.96923828 3.13720703 C31.46122804 1.18172635 34.08768086 1.45090258 38 2 C40 4 40 4 40.27734375 7.45703125 C40.14349843 12.70305721 38.86090147 17.62623807 37.5625 22.6875 C37.1048322 24.52458112 36.64778061 26.36181588 36.19140625 28.19921875 C35.98717041 29.00190186 35.78293457 29.80458496 35.57250977 30.6315918 C34.98138559 33.07700573 34.47774165 35.53016063 34 38 C34.93457031 37.46632812 35.86914062 36.93265625 36.83203125 36.3828125 C45.25345411 31.5985057 53.73919673 26.97370574 62.35083008 22.53955078 C66.81819723 20.22121983 71.0911853 17.75119808 75.29174805 14.97558594 C77.68468638 13.60897431 79.32037347 13.38751394 82 14 C83.6171875 15.12890625 83.6171875 15.12890625 85 17 C86.62140971 30.0933193 83.45439193 42.80448034 79 55 C81.2754489 53.90464598 83.54577543 52.80071362 85.8125 51.6875 C86.87283447 51.16748413 86.87283447 51.16748413 87.95458984 50.63696289 C92.09661785 48.56775095 96.11612873 46.37528013 100.08203125 43.984375 C100.92209717 43.47946533 101.76216309 42.97455566 102.62768555 42.4543457 C104.26961215 41.45705467 105.90297563 40.44550179 107.52661133 39.41870117 C113.2105018 35.97085745 113.2105018 35.97085745 117.4921875 36.12890625 C120 37 120 37 121 38 C122.25219544 51.7500692 118.7948034 70.3077949 111 82 C116.61618026 80.37822825 122.17417171 78.62561074 127.70703125 76.73828125 C128.87041016 76.34189453 130.03378906 75.94550781 131.23242188 75.53710938 C133.64021884 74.71349306 136.04645021 73.88528696 138.45117188 73.05273438 C139.60810547 72.66021484 140.76503906 72.26769531 141.95703125 71.86328125 C142.99835205 71.50532471 144.03967285 71.14736816 145.11254883 70.77856445 C147.93472493 70.01760059 150.09865325 69.68827464 153 70 C155 72 155 72 155.31640625 75.14453125 C154.96295232 79.45143284 153.73906937 82.82374496 151.9375 86.6875 C151.62603027 87.3779541 151.31456055 88.0684082 150.99365234 88.77978516 C148.07710003 95.11140826 144.64012618 101.05651713 141 107 C140.67 107.66 140.34 108.32 140 109 C141.26183105 108.98952637 142.52366211 108.97905273 143.82373047 108.96826172 C148.49394914 108.93213101 153.16415539 108.90912484 157.83447266 108.89013672 C159.85793127 108.88006329 161.88137528 108.86640405 163.90478516 108.84912109 C166.80895589 108.82493153 169.71293461 108.81353051 172.6171875 108.8046875 C173.52556366 108.79436493 174.43393982 108.78404236 175.36984253 108.77340698 C176.21056305 108.77325592 177.05128357 108.77310486 177.91748047 108.77294922 C179.03000687 108.76628738 179.03000687 108.76628738 180.16500854 108.75949097 C182 109 182 109 184 111 C183.98464538 115.38374312 181.84568016 117.64313895 178.84741211 120.65698242 C177.99481812 121.47646362 177.99481812 121.47646362 177.125 122.3125 C176.25403687 123.16581909 176.25403687 123.16581909 175.36547852 124.03637695 C169.2250434 129.93745478 162.68476196 135.24010395 155 139 C155.65895264 139.13575439 156.31790527 139.27150879 156.99682617 139.41137695 C164.33452067 140.925301 171.66864609 142.45566667 179 144 C180.17828369 144.2470166 180.17828369 144.2470166 181.38037109 144.49902344 C183.21376475 144.8865272 185.04456518 145.28625214 186.875 145.6875 C188.32519531 146.00267578 188.32519531 146.00267578 189.8046875 146.32421875 C192 147 192 147 194 149 C194.125 151.625 194.125 151.625 194 154 C183.46193515 159.63792325 172.93805398 165.16918981 162 170 C163.30439792 171.10072117 164.6088183 172.20141573 165.91333008 173.30200195 C167.06623731 174.27731115 168.21707994 175.25506553 169.3659668 176.23510742 C172.53475684 178.93539701 175.72681871 181.59375335 178.98046875 184.19140625 C179.62097168 184.7131543 180.26147461 185.23490234 180.92138672 185.77246094 C182.16284889 186.78345285 183.41558967 187.78078139 184.68017578 188.76269531 C187.68650378 191.24071104 188.93157669 192.40630687 189.38671875 196.35546875 C189.25910156 197.22816406 189.13148438 198.10085938 189 199 C187.43979133 199.65134925 185.87671421 200.29582964 184.3125 200.9375 C183.00732422 201.47697266 183.00732422 201.47697266 181.67578125 202.02734375 C179.11820735 202.9570312 176.6778677 203.54162625 174 204 C174.39832031 204.53109375 174.79664063 205.0621875 175.20703125 205.609375 C176.8046875 207.73958333 178.40234375 209.86979167 180 212 C180.58136719 212.60328125 181.16273438 213.2065625 181.76171875 213.828125 C183.66337948 217.16352994 182.91926793 219.35449114 182 223 C180.49609375 225.796875 180.49609375 225.796875 178.4375 228.75 C177.62657858 229.97025185 176.8196505 231.19316218 176.015625 232.41796875 C175.55091797 233.12228027 175.08621094 233.8265918 174.60742188 234.55224609 C171.60814023 239.1194997 168.63740239 243.69922757 165.76223755 248.34558105 C164.72689416 249.99956689 163.65688923 251.63170038 162.58569336 253.26269531 C156.37215442 263.37147987 154.74945044 273.41984323 153 285 C152.70559612 286.80507787 152.40832879 288.60969113 152.1081543 290.41381836 C151.20029921 295.91594223 150.34590033 301.4255599 149.5 306.9375 C149.35070038 307.90215179 149.20140076 308.86680359 149.0475769 309.86068726 C146.46647093 326.5449136 144.10321545 343.24846035 142 360 C142.99036255 359.96193237 142.99036255 359.96193237 144.00073242 359.9230957 C152.63814856 359.72939621 158.2383405 361.81076694 164.875 367.4375 C172.36664315 376.47154026 174.99282484 385.35810878 174 397 C172.79361724 408.16617506 170.63714576 419.02559416 167.91186523 429.91137695 C166.26510698 436.58683896 165.00628958 443.28191216 163.875 450.0625 C158.66565014 480.85842721 158.66565014 480.85842721 147.98901367 488.68212891 C140.59971894 493.5780922 134.19880072 494.55151399 125.4375 494.25 C124.42880859 494.23195313 123.42011719 494.21390625 122.38085938 494.1953125 C119.91954395 494.14865249 117.46030429 494.0832157 115 494 C114.81630859 495.95486328 114.81630859 495.95486328 114.62890625 497.94921875 C112.27968259 518.87978018 103.44673768 543.77728602 90.71217346 560.71264648 C86.44901345 566.54317019 86.32457651 571.54909477 86.4765625 578.609375 C86.48090302 579.72253082 86.48524353 580.83568665 86.48971558 581.98257446 C86.51023816 585.57240221 86.56681783 589.16060283 86.625 592.75 C86.64698382 595.20262123 86.6671643 597.65525929 86.68554688 600.10791016 C86.83149266 616.41021771 87.12769363 632.71849431 88 649 C88.91418701 648.97462158 89.82837402 648.94924316 90.77026367 648.9230957 C108.04485056 648.64460167 121.93679704 653.9022845 134.60546875 665.67578125 C136.73900092 667.74666484 138.81164076 669.85974538 140.875 672 C148.05925417 679.22718796 156.15981601 684.6714612 165.0625 689.5 C172.0640578 693.31304722 178.0606715 697.6461196 184 703 C184.54849609 703.48968262 185.09699219 703.97936523 185.66210938 704.48388672 C187.42827129 706.0643174 189.18524668 707.65416722 190.9375 709.25 C191.75383911 709.99310425 191.75383911 709.99310425 192.58666992 710.7512207 C194.90081023 712.89720424 196.94118184 714.91332325 198.71801758 717.53173828 C201.59616472 720.64482992 204.36683795 721.3710751 208.359375 722.2890625 C209.45206696 722.56614044 209.45206696 722.56614044 210.5668335 722.84881592 C212.13737892 723.24670289 213.70984166 723.6370825 215.28393555 724.02069092 C219.49887902 725.05356279 223.69467384 726.1584932 227.890625 727.265625 C228.74438721 727.4903952 229.59814941 727.71516541 230.4777832 727.94674683 C300.75390355 746.67451418 378.04181584 783.35319825 415.8125 848.5 C417.58255387 851.64553979 419.30133975 854.81544377 421 858 C421.35368652 858.64743164 421.70737305 859.29486328 422.07177734 859.96191406 C427.53215513 870.08475763 431.17071634 880.87491164 434.8125 891.75 C435.1681604 892.80806854 435.1681604 892.80806854 435.53100586 893.88751221 C436.22306455 895.95881038 436.90460647 898.03324898 437.58203125 900.109375 C437.97624268 901.31561523 438.3704541 902.52185547 438.77661133 903.76464844 C440.41808785 909.4474133 441.66993631 915.23639069 443 921 C113.99 921 -215.02 921 -554 921 C-541.44350152 883.33050456 -527.72552897 846.08502323 -501 816 C-500.24074219 815.1440625 -499.48148437 814.288125 -498.69921875 813.40625 C-497.17596118 811.70634575 -495.64495517 810.01334594 -494.10546875 808.328125 C-492.24933287 806.27570017 -490.46629008 804.18154291 -488.6875 802.0625 C-467.39486813 777.81121086 -437.77473294 760.79519848 -409 747 C-407.93531494 746.48252197 -407.93531494 746.48252197 -406.84912109 745.95458984 C-395.94501332 740.69145065 -384.76991105 736.31610658 -373.375 732.25 C-372.36578491 731.8867865 -372.36578491 731.8867865 -371.33618164 731.51623535 C-364.33392494 729.0059048 -357.46028178 726.76583303 -350.13549805 725.37426758 C-339.60292661 723.28132408 -335.10568162 717.36445603 -329.17578125 708.71875 C-328.64291504 707.92082031 -328.11004883 707.12289062 -327.56103516 706.30078125 C-325.2754982 702.93217001 -322.78237762 699.74738109 -320.25 696.5625 C-319.80760986 695.99781006 -319.36521973 695.43312012 -318.90942383 694.85131836 C-315.22874937 690.18576125 -311.30563872 685.79767737 -307.2578125 681.4453125 C-305.31501563 679.34117609 -303.46383928 677.19417054 -301.625 675 C-286.39326865 657.63795657 -265.51151989 643.56738118 -241.91418457 641.84802246 C-236.81665982 641.64437785 -231.72426305 641.72332459 -226.625 641.8125 C-225.09897178 641.82759794 -223.57292884 641.84127717 -222.046875 641.85351562 C-218.36426956 641.88606191 -214.68223444 641.93755125 -211 642 C-210.93941406 640.71867188 -210.87882812 639.43734375 -210.81640625 638.1171875 C-210.73185464 636.36978761 -210.64721437 634.62239201 -210.5625 632.875 C-210.50352539 631.62009766 -210.50352539 631.62009766 -210.44335938 630.33984375 C-210.20182521 625.39768319 -209.88847334 620.4686216 -209.5078125 615.53515625 C-208.92531956 607.39466502 -208.53171937 599.26473946 -208.37524414 591.10522461 C-208.33344405 589.41126361 -208.27193727 587.7176734 -208.19067383 586.02514648 C-207.58959277 573.19671338 -209.71022013 565.75062428 -217.73558044 555.71487427 C-230.07568498 538.9785563 -237.07341742 514.37753961 -239 494 C-239.64437012 494.02618408 -240.28874023 494.05236816 -240.95263672 494.0793457 C-243.92650079 494.1845092 -246.89997223 494.24869732 -249.875 494.3125 C-250.88820313 494.35439453 -251.90140625 494.39628906 -252.9453125 494.43945312 C-261.26107026 494.57271847 -267.87136224 492.76216531 -274.12060547 487.06762695 C-281.7902355 479.12156578 -283.74558441 469.60423898 -285.4375 459 C-285.85840864 456.50482461 -286.28163477 454.01003919 -286.70703125 451.515625 C-287.02534912 449.63520508 -287.02534912 449.63520508 -287.35009766 447.71679688 C-288.34258006 442.04078179 -289.47629714 436.39612239 -290.625 430.75 C-290.8327002 429.71278809 -291.04040039 428.67557617 -291.25439453 427.60693359 C-292.1284566 423.24783815 -293.01590949 418.89470442 -293.98046875 414.5546875 C-296.53322358 402.75267554 -299.01451201 387.41980903 -293.3828125 376.13671875 C-288.56145196 368.68676334 -282.78877494 362.45296804 -274 360 C-270.99214974 359.84875316 -268.00860796 359.88556215 -265 360 C-265.27263672 358.08767578 -265.27263672 358.08767578 -265.55078125 356.13671875 C-266.81105917 347.16275869 -268.00406292 338.19573809 -268.92871094 329.18041992 C-270.59739926 312.9867888 -273.02065022 296.92442167 -275.48730469 280.83618164 C-280.11518572 250.57394569 -280.11518572 250.57394569 -280 239.5625 C-280.50573119 230.4107105 -285.22535 223.72790661 -289.80664062 216.06591797 C-294.32787307 208.23885803 -296.13152235 200.87062987 -296.8125 192 C-297.18372546 186.6869915 -297.18372546 186.6869915 -299.47265625 181.984375 C-301.60860408 180.59842117 -303.5850531 179.81127123 -306 179 C-308.12714005 178.1092601 -310.25206514 177.21321635 -312.375 176.3125 C-313.39335937 175.91675781 -314.41171875 175.52101563 -315.4609375 175.11328125 C-318 174 -318 174 -320 172 C-319.89453125 169.53125 -319.89453125 169.53125 -319 167 C-317.13671875 165.59375 -317.13671875 165.59375 -314.6875 164.5 C-313.79675781 164.09394531 -312.90601563 163.68789063 -311.98828125 163.26953125 C-311.00214844 162.85058594 -310.01601563 162.43164062 -309 162 C-307.90042969 161.52949219 -306.80085937 161.05898438 -305.66796875 160.57421875 C-302.78696483 159.3609846 -299.89861905 158.1704046 -297 157 C-303.97842678 152.40192642 -311.08628824 148.18518632 -318.42773438 144.19750977 C-328.31376445 138.7584786 -328.31376445 138.7584786 -330 134.4375 C-330 132 -330 132 -328.76318359 130.39038086 C-322.39257168 125.36675377 -309.21580571 127.88808707 -301.375 127.9375 C-299.97526203 127.94252803 -298.5755223 127.94708862 -297.17578125 127.95117188 C-293.78380831 127.96286833 -290.39192767 127.97925914 -287 128 C-287.24758057 127.30438965 -287.49516113 126.6087793 -287.75024414 125.89208984 C-288.86861396 122.72456258 -289.96569585 119.55005576 -291.0625 116.375 C-291.64741211 114.73337891 -291.64741211 114.73337891 -292.24414062 113.05859375 C-292.60830078 111.99511719 -292.97246094 110.93164062 -293.34765625 109.8359375 C-293.85824585 108.37486572 -293.85824585 108.37486572 -294.37915039 106.88427734 C-295.0851712 103.60432065 -294.74343575 101.24752953 -294 98 C-288.76800489 96.60373137 -285.47635015 97.61562905 -280.75 99.875 C-280.07195312 100.1851001 -279.39390625 100.4952002 -278.6953125 100.81469727 C-270.36465188 104.66857447 -262.17448328 108.82760749 -254 113 C-254.13277344 112.21238281 -254.26554687 111.42476563 -254.40234375 110.61328125 C-259.94621609 76.41932413 -259.94621609 76.41932413 -255 69 C-251.96832702 68.36105729 -249.9839171 68.36143319 -247.33203125 70.08251953 C-245.46824531 71.66855019 -243.73200832 73.33346646 -242 75.0625 C-241.35861084 75.68286133 -240.71722168 76.30322266 -240.05639648 76.94238281 C-235.28443494 81.60529427 -230.64511153 86.40141218 -226.0625 91.25 C-225.45341797 91.89332275 -224.84433594 92.53664551 -224.21679688 93.19946289 C-220 97.75357903 -220 97.75357903 -220 100 C-219.34 100 -218.68 100 -218 100 C-217.92523437 99.2265625 -217.85046875 98.453125 -217.7734375 97.65625 C-216.7095373 92.62690359 -214.70270081 88.18771164 -212.625 83.5 C-212.18599365 82.50202393 -211.7469873 81.50404785 -211.29467773 80.47583008 C-208.031835 73.14061899 -204.61340921 65.88745612 -201.0625 58.6875 C-200.37244873 57.27404297 -200.37244873 57.27404297 -199.66845703 55.83203125 C-199.01466064 54.52878906 -199.01466064 54.52878906 -198.34765625 53.19921875 C-197.77543335 52.05199341 -197.77543335 52.05199341 -197.19165039 50.8815918 C-196 49 -196 49 -193 47 C-191 47.0625 -191 47.0625 -189 48 C-185.90533314 52.31557653 -184.43654962 57.12854116 -182.8125 62.125 C-182.40354492 63.34123047 -182.40354492 63.34123047 -181.98632812 64.58203125 C-180 70.60573308 -180 70.60573308 -180 74 C-179.07445312 73.27296875 -178.14890625 72.5459375 -177.1953125 71.796875 C-167.49788052 64.44917692 -157.52072644 59.09645604 -146.35205078 54.27441406 C-135.0369706 49.34908739 -125.41757948 42.78029929 -115.6875 35.25 C-114.78467285 34.55696777 -113.8818457 33.86393555 -112.95166016 33.14990234 C-106.99294718 28.56717397 -101.06097184 23.94973743 -95.17456055 19.27441406 C-92.82962891 17.41434915 -90.4930946 15.66206307 -88 14 C-85.3125 14.375 -85.3125 14.375 -83 15 C-81.01636492 21.23428168 -79.99681713 27.54189755 -79 34 C-77.67548828 32.64068359 -77.67548828 32.64068359 -76.32421875 31.25390625 C-69.96355412 24.77835423 -63.60897754 18.59033527 -56.46875 12.97265625 C-53.45504811 10.56455585 -50.64523511 7.9707964 -47.8515625 5.3125 C-45.55531099 3.68477741 -43.79591675 3.2185733 -41 3 C-39 5 -39 5 -38.734375 7.7578125 C-38.7642334 14.19229727 -39.0702474 19.84891359 -41 26 C-40.34 26 -39.68 26 -39 26 C-39 25.34 -39 24.68 -39 24 C-37.67749023 22.75415039 -37.67749023 22.75415039 -35.80859375 21.34765625 C-35.11773682 20.82333008 -34.42687988 20.29900391 -33.71508789 19.75878906 C-32.96348389 19.19901367 -32.21187988 18.63923828 -31.4375 18.0625 C-30.67622803 17.48854492 -29.91495605 16.91458984 -29.13061523 16.32324219 C-26.75981336 14.54053669 -24.38134452 12.76859229 -22 11 C-21.25911133 10.44876465 -20.51822266 9.8975293 -19.75488281 9.32958984 C-5.24845413 -1.44332488 -5.24845413 -1.44332488 0 0 Z " fill="#242323" transform="translate(818,103)"/>
<path d="M0 0 C5.60016713 10.17363695 6.49821026 22.92930962 8.03710938 34.27099609 C8.22080078 35.4977002 8.40449219 36.7244043 8.59375 37.98828125 C8.82094727 39.65177612 8.82094727 39.65177612 9.05273438 41.34887695 C9.7500504 44.23974401 9.7500504 44.23974401 12.58789062 45.37573242 C13.38388672 45.58174072 14.17988281 45.78774902 15 46 C17.82928932 43.44928686 19.67893264 40.53378728 21.6875 37.3125 C22.31011719 36.31863281 22.93273437 35.32476562 23.57421875 34.30078125 C24.04472656 33.54152344 24.51523437 32.78226562 25 32 C27.6590888 34.44565193 29.53287218 37.14136778 31.51171875 40.15625 C32.18783203 41.17976563 32.86394531 42.20328125 33.56054688 43.2578125 C34.61338867 44.86269531 34.61338867 44.86269531 35.6875 46.5 C38.43525141 50.68260176 41.20977107 54.84564465 44 59 C44.6904541 60.06734375 45.3809082 61.1346875 46.09228516 62.234375 C46.76952637 63.23984375 47.44676758 64.2453125 48.14453125 65.28125 C48.74241455 66.18939453 49.34029785 67.09753906 49.95629883 68.03320312 C51.92002893 70.33326573 51.92002893 70.33326573 55.2409668 70.29492188 C56.60668823 70.14893555 56.60668823 70.14893555 58 70 C59.30774665 62.01385781 60.38541771 54.0704358 61 46 C64.28741874 49.0997673 66.34881235 52.76136513 68.625 56.625 C73.16020861 64.1626005 77.89813306 71.55712908 82.79876709 78.86126709 C83.5565161 79.99332144 84.31016286 81.12813269 85.05963135 82.26568604 C86.12071053 83.87356892 87.19871893 85.47024056 88.27734375 87.06640625 C88.89859131 87.99396729 89.51983887 88.92152832 90.15991211 89.87719727 C92.1499938 92.17303915 93.03091852 92.69929958 96 93 C96.66 93 97.32 93 98 93 C98.11593506 92.3294458 98.23187012 91.6588916 98.35131836 90.96801758 C98.87937401 87.91606175 99.40842722 84.86427966 99.9375 81.8125 C100.11990234 80.75740234 100.30230469 79.70230469 100.49023438 78.61523438 C100.66748047 77.59365234 100.84472656 76.57207031 101.02734375 75.51953125 C101.18968506 74.58214111 101.35202637 73.64475098 101.51928711 72.67895508 C101.97993359 70.11182768 102.47916695 67.55552716 103 65 C103.66 65 104.32 65 105 65 C106.60855906 68.97740481 108.21103827 72.9572328 109.8125 76.9375 C110.26431641 78.05447266 110.71613281 79.17144531 111.18164062 80.32226562 C123.43792063 110.82877279 124.53461002 143.05673522 124.39111328 175.56396484 C124.37408234 179.45685287 124.38417612 183.34912245 124.40142727 187.24198914 C124.48060442 208.32586262 123.33562072 229.04796424 121 250 C120.87951294 251.0986438 120.75902588 252.1972876 120.6348877 253.32922363 C119.88767209 260.06205444 119.06323374 266.78275811 118.1875 273.5 C118.0596109 274.4861731 117.9317218 275.47234619 117.79995728 276.48840332 C109.85335501 337.36547677 92.97245128 394.24377753 42.4375 433.4375 C6.9629904 459.46664938 -36.05446101 470.76130685 -79.8125 464.875 C-96.28940662 462.33682309 -112.05670668 457.35138651 -127 450 C-127.63099609 449.69336426 -128.26199219 449.38672852 -128.91210938 449.07080078 C-142.65930208 442.31281537 -154.49520845 433.80429398 -165.57421875 423.25 C-167.98175948 420.89722606 -167.98175948 420.89722606 -171 419 C-171 418.34 -171 417.68 -171 417 C-171.99 416.67 -172.98 416.34 -174 416 C-176.58038087 413.57056063 -178.7470368 410.73062324 -181 408 C-181.44053711 407.47567383 -181.88107422 406.95134766 -182.33496094 406.41113281 C-206.56421904 377.51038163 -218.42732231 345.28335477 -224.375 308.375 C-224.52585052 307.44425659 -224.67670105 306.51351318 -224.8321228 305.55456543 C-228.1813164 284.77540892 -230.88653932 263.94042132 -233 243 C-233.13277344 241.68902344 -233.26554688 240.37804687 -233.40234375 239.02734375 C-235.12973138 220.88006924 -235.19721758 202.71473425 -235.25 184.5 C-235.2554483 183.35776978 -235.26089661 182.21553955 -235.26651001 181.03869629 C-235.43679112 133.10650338 -230.45116687 68.35525246 -194.9765625 31.921875 C-182.89947059 20.46306424 -168.52161537 11.05510951 -154 3 C-153.40106934 2.66162109 -152.80213867 2.32324219 -152.18505859 1.97460938 C-111.21591665 -20.89900817 -40.4970116 -30.44306601 0 0 Z " fill="#FEFAF6" transform="translate(812,273)"/>
<path d="M0 0 C0.66 0.33 1.32 0.66 2 1 C1.82460693 1.62527588 1.64921387 2.25055176 1.46850586 2.89477539 C-3.0011094 18.92428964 -6.92672945 35.01072142 -10.51953125 51.25390625 C-10.78459473 52.41937988 -11.0496582 53.58485352 -11.32275391 54.78564453 C-12.02451133 57.91065649 -12.02451133 57.91065649 -12.36083984 60.75732422 C-13.13757466 66.25499276 -13.13757466 66.25499276 -15.49731445 68.29345703 C-17.62370735 69.43293602 -19.71370569 70.22855946 -22 71 C-22.88429688 71.3182373 -23.76859375 71.63647461 -24.6796875 71.96435547 C-28.60419176 73.34129198 -32.55482739 74.63163675 -36.51171875 75.91210938 C-44.04531824 78.43491977 -51.61852957 81.21520508 -56.375 87.9375 C-57.06722656 88.87916016 -57.06722656 88.87916016 -57.7734375 89.83984375 C-60.30266195 94.29417853 -61.2474524 98.72910171 -61.54272461 103.80029297 C-61.61326553 104.92364044 -61.68380646 106.04698792 -61.75648499 107.20437622 C-61.82524338 108.41310394 -61.89400177 109.62183167 -61.96484375 110.8671875 C-62.12975665 113.49067457 -62.29620192 116.11402711 -62.46435547 118.73730469 C-62.50703961 119.41490656 -62.54972376 120.09250843 -62.59370136 120.79064369 C-63.06495367 128.20287607 -63.65306031 135.60510972 -64.25390625 143.0078125 C-64.36202037 144.34682124 -64.47012379 145.68583084 -64.57821655 147.02484131 C-64.84966311 150.38032565 -65.12307733 153.7356472 -65.39685059 157.09094238 C-65.62098114 159.84310709 -65.84337592 162.59541095 -66.06573582 165.34771919 C-66.3360857 168.69280776 -66.60748164 172.03781096 -66.87890625 175.3828125 C-66.97683975 176.5912381 -67.07477325 177.7996637 -67.17567444 179.04470825 C-67.31603371 180.76498734 -67.31603371 180.76498734 -67.45922852 182.52001953 C-67.53979996 183.5095462 -67.6203714 184.49907288 -67.7033844 185.51858521 C-68.11480995 190.34753894 -68.56122315 195.17345465 -69 200 C-163.71 200 -258.42 200 -356 200 C-359.45300232 167.77197833 -359.45300232 167.77197833 -360.75390625 152.20703125 C-360.90151757 150.46845906 -361.0493877 148.72990883 -361.19749451 146.99137878 C-361.5792021 142.50198954 -361.95718817 138.01229502 -362.33435059 133.52252197 C-362.71444687 129.00763297 -363.09873719 124.49310081 -363.48242188 119.97851562 C-364.20419527 111.47696874 -364.91771404 102.97475372 -365.62640381 94.47210693 C-365.86214262 91.6451579 -366.09958943 88.81836534 -366.3394165 85.99176025 C-366.6295773 82.56640728 -366.91516128 79.14070737 -367.19921875 75.71484375 C-367.31941124 74.31502007 -367.31941124 74.31502007 -367.44203186 72.88691711 C-369.16166667 51.82438483 -368.41881557 30.45702002 -364.0625 9.75 C-363.90491211 8.98059082 -363.74732422 8.21118164 -363.58496094 7.41845703 C-363.09765625 5.296875 -363.09765625 5.296875 -362 2 C-358.80378888 0.93459629 -357.91791536 1.03883533 -354.75 1.75 C-353.40566895 2.03919312 -353.40566895 2.03919312 -352.03417969 2.33422852 C-350.53226074 2.6637854 -350.53226074 2.6637854 -349 3 C-329.78977426 7.02212295 -310.38979587 9.99043059 -291 13 C-289.96519501 13.16112274 -289.96519501 13.16112274 -288.90948486 13.32550049 C-266.92349408 16.73548358 -244.7904193 18.93251425 -222.65699768 21.13334656 C-217.41123273 21.65497988 -212.16761772 22.19079523 -206.92616272 22.75405884 C-178.72422459 25.77133299 -150.86528674 27.1580003 -123 21 C-121.85289551 20.74847168 -120.70579102 20.49694336 -119.52392578 20.23779297 C-114.76253675 19.18728959 -110.00220597 18.13686549 -105.25610352 17.01904297 C-96.79771804 15.04839385 -88.57388927 13.85076911 -79.875 13.875 C-78.94429687 13.87242187 -78.01359375 13.86984375 -77.0546875 13.8671875 C-74 14 -74 14 -70.39453125 14.49609375 C-47.0749721 17.57958048 -20.32689004 15.4660022 -1 1 C-0.67 0.67 -0.34 0.34 0 0 Z " fill="#FEFAF7" transform="translate(919,824)"/>
<path d="M0 0 C11.25266964 2.64880311 22.22995277 5.82051144 33.1875 9.5 C33.96014191 9.75811462 34.73278381 10.01622925 35.52883911 10.28216553 C81.60094622 25.73372019 127.08664763 46.63259763 162.51708984 80.58447266 C163.8591556 81.86555551 165.21958521 83.12733217 166.58203125 84.38671875 C191.86705364 108.44629579 205.86634288 140.2478074 216 173 C216.30309082 173.96244629 216.60618164 174.92489258 216.91845703 175.91650391 C217.19415527 176.80644043 217.46985352 177.69637695 217.75390625 178.61328125 C217.99568604 179.39098877 218.23746582 180.16869629 218.48657227 180.9699707 C219 183 219 183 219 186 C91.29 186 -36.42 186 -168 186 C-168 175.61709466 -167.82596515 165.61486263 -166.94140625 155.32421875 C-166.83105542 153.98018079 -166.72136633 152.63608836 -166.61228943 151.29194641 C-166.32719046 147.79563926 -166.03493237 144.29997368 -165.74047852 140.80444336 C-165.27245447 135.2375894 -164.81399976 129.66994392 -164.35810471 124.10208511 C-164.24731208 122.7543063 -164.13568643 121.40659569 -164.02321243 120.05895615 C-163.29240683 111.29984431 -162.6432278 102.54806829 -162.48866272 93.75700378 C-162.28419505 87.5613029 -160.68745279 83.07913031 -156.76171875 78.2421875 C-153.6338538 75.70273279 -150.57984829 74.38311347 -146.8125 73.125 C-145.38913458 72.61380534 -143.96596505 72.10206502 -142.54296875 71.58984375 C-140.25093345 70.78361772 -137.95661379 69.98509758 -135.65869141 69.19580078 C-120.72800251 64.02308541 -111.72262676 57.81435947 -103.484375 44.05273438 C-101.74888672 41.22160955 -100.42952242 39.24303698 -97.5078125 37.58984375 C-95.01399697 37.00329212 -92.74831729 36.59928855 -90.1875 36.5 C-89.39730469 36.4484375 -88.60710937 36.396875 -87.79296875 36.34375 C-80.59489373 38.03504595 -74.87428058 44.82454716 -69.6875 49.8125 C-64.42036982 54.8063202 -59.07361324 59.53919019 -53.39453125 64.0625 C-51.26493773 65.78562951 -49.25980529 67.57832252 -47.25 69.4375 C-26.51281616 87.67775762 -0.54983042 97.42877938 26.9375 97.25 C28.12279297 97.25773438 29.30808594 97.26546875 30.52929688 97.2734375 C43.18114326 97.63417794 43.18114326 97.63417794 54.89428711 93.80175781 C56.26453341 91.94660965 56.26453341 91.94660965 55.87231445 89.14916992 C54.96856338 85.88650965 53.80476593 83.49700084 52.04296875 80.61328125 C51.43146973 79.60265625 50.8199707 78.59203125 50.18994141 77.55078125 C49.52913574 76.48214844 48.86833008 75.41351562 48.1875 74.3125 C47.50606934 73.19617188 46.82463867 72.07984375 46.12255859 70.9296875 C44.09240765 67.61306196 42.04800021 64.30562518 40 61 C39.46874512 60.13552246 38.93749023 59.27104492 38.39013672 58.38037109 C27.24974918 40.26370333 15.27690559 22.61686808 2.6875 5.4765625 C1 3 1 3 0 0 Z " fill="#FEFAF7" transform="translate(1030,838)"/>
<path d="M0 0 C-0.57161865 0.75953979 -0.57161865 0.75953979 -1.15478516 1.53442383 C-33.22639968 36.93584275 -33.22639968 36.93584275 -52.6875 76.125 C-52.29355679 78.88086422 -52.29355679 78.88086422 -51 80 C-45.82339133 80.31986611 -41.44327713 79.54648692 -36.5625 77.9375 C-35.86858154 77.71199463 -35.17466309 77.48648926 -34.4597168 77.25415039 C-13.80936584 70.35205205 4.65022301 59.12803696 22.69238281 47.10107422 C23.47709961 46.57916504 24.26181641 46.05725586 25.0703125 45.51953125 C25.75883301 45.05651611 26.44735352 44.59350098 27.15673828 44.11645508 C29 43 29 43 32 42 C32.06993164 43.24499268 32.13986328 44.48998535 32.21191406 45.77270508 C32.47846458 50.43867694 32.76707773 55.10307744 33.06201172 59.76733398 C33.18609943 61.77739372 33.30438386 63.78782119 33.41650391 65.79858398 C34.50532282 85.19979527 38.42908365 98.42805007 51.375 113.3125 C66.42807807 130.65671107 83 158.49506774 83 182 C-7.42 182 -97.84 182 -191 182 C-181.59633324 153.78899971 -181.59633324 153.78899971 -177.75 144.875 C-177.29165771 143.80644775 -176.83331543 142.73789551 -176.36108398 141.63696289 C-166.81034144 119.81615794 -154.57349946 100.0309691 -139 82 C-138.30777344 81.19691406 -137.61554688 80.39382813 -136.90234375 79.56640625 C-126.53793861 67.81004833 -115.57824871 57.34213153 -103 48 C-102.44763672 47.58153809 -101.89527344 47.16307617 -101.32617188 46.73193359 C-86.684092 35.65529524 -70.56747978 26.84106792 -54 19 C-53.26265625 18.64728027 -52.5253125 18.29456055 -51.765625 17.93115234 C-38.65462189 11.69737633 -25.22780475 6.59184462 -11.50488281 1.86767578 C-9.48072543 1.16652029 -7.46869708 0.4304094 -5.4609375 -0.31640625 C-3 -1 -3 -1 0 0 Z " fill="#FEFBF7" transform="translate(467,842)"/>
<path d="M0 0 C0.66 0 1.32 0 2 0 C2.03092239 0.92936371 2.03092239 0.92936371 2.06246948 1.87750244 C2.28193055 8.43376149 2.51077402 14.98964911 2.74462891 21.54541016 C2.83028001 23.97924897 2.9136828 26.41316814 2.99462891 28.84716797 C3.46540813 42.9531084 4.14503852 56.95299209 5.76708984 70.97717285 C5.97662364 72.7969761 6.16999447 74.61862298 6.36132812 76.44042969 C8.03760259 92.33380222 10.06173714 107.36088407 19.44921875 120.765625 C20.85330245 122.78863728 21.96259375 124.77187623 23 127 C9.94775842 136.88637873 -1.95150031 140.45335056 -18.203125 139.87890625 C-20.63159785 139.82204434 -23.0601535 139.76863849 -25.48876953 139.71826172 C-27.3887973 139.67762604 -27.3887973 139.67762604 -29.32720947 139.63616943 C-54.77345343 139.15829269 -78.23576535 141.44580549 -103.01660156 147.42631531 C-123.28897046 152.22443934 -143.62118212 151.55289254 -164.1953125 149.390625 C-165.88264704 149.22011259 -167.57005776 149.05035257 -169.25753784 148.88128662 C-172.77240633 148.52721175 -176.28657325 148.16705391 -179.80029297 147.80175781 C-184.19456756 147.34498506 -188.58985311 146.89910829 -192.98565197 146.45727253 C-250.47984214 140.67383527 -250.47984214 140.67383527 -276.4375 136.3125 C-277.76358685 136.09778153 -279.08975973 135.88359374 -280.41601562 135.66992188 C-289.7171332 134.1414334 -289.7171332 134.1414334 -292 133 C-290.17718987 127.23662511 -288.08083719 121.64075013 -285.78955078 116.04833984 C-281.10968187 104.55175622 -277.40619856 93.17952359 -275 81 C-274.85369141 80.26394531 -274.70738281 79.52789063 -274.55664062 78.76953125 C-269.82490664 53.66690493 -269.56460013 27.45725456 -268 2 C-263.90792689 5.38040822 -260.12379548 8.86715742 -256.4375 12.6875 C-224.02162942 45.34820344 -178.77421319 62.03074094 -133.25 62.3125 C-120.17552306 62.34510468 -107.76186422 60.7617682 -95 58 C-93.91887939 57.76772705 -93.91887939 57.76772705 -92.81591797 57.53076172 C-56.33522059 49.39088781 -26.30643212 28.87894163 -1 2 C-0.67 1.34 -0.34 0.68 0 0 Z " fill="#FEFAF6" transform="translate(890,688)"/>
<path d="M0 0 C12.69566928 0.41557019 24.36407589 2.24827117 34 11 C34.93585937 11.84175781 35.87171875 12.68351563 36.8359375 13.55078125 C40.70201769 17.05968933 44.53552666 20.60231852 48.3125 24.20703125 C53.81793759 29.33801812 59.79846546 33.13218137 66.25878906 36.96582031 C76.56050946 43.0844529 85.44636865 49.56619029 94 58 C94.62600098 58.59828613 95.25200195 59.19657227 95.89697266 59.81298828 C100.68597754 64.45989299 104.7395083 69.33323487 108.625 74.75 C109.21764648 75.5656543 109.81029297 76.38130859 110.42089844 77.22167969 C120.58813269 91.26929222 130.49238143 105.49775293 140 120 C140.42845215 120.6496875 140.8569043 121.299375 141.29833984 121.96875 C146.90769299 130.48203314 152.34362577 139.09166836 157.625 147.8125 C158.40689697 149.09386841 158.40689697 149.09386841 159.20458984 150.40112305 C159.68621582 151.20332275 160.1678418 152.00552246 160.6640625 152.83203125 C161.30529053 153.89514526 161.30529053 153.89514526 161.95947266 154.97973633 C162.99269941 156.98582534 163.55146001 158.79596729 164 161 C139.80815825 165.47729609 114.16725195 158.57947261 94 145 C86.00155726 139.31925063 78.6288451 132.92605433 71.44140625 126.26171875 C68.73156802 123.75132462 65.95568001 121.3312205 63.15625 118.921875 C61.45610959 117.40653246 59.79790524 115.84413966 58.15625 114.265625 C49.98329619 106.40852153 44.16799593 101.90634812 32.5 101.5 C26.15795102 101.65934796 21.43417859 102.7706194 16 106 C15.01 106.495 15.01 106.495 14 107 C16.30329976 94.4048307 19.52776932 82.13502313 22.89233398 69.78857422 C23.57275693 67.28490276 24.24567411 64.77930166 24.91796875 62.2734375 C25.12729538 61.51509613 25.33662201 60.75675476 25.55229187 59.97543335 C27.00683261 54.55587384 27.00683261 54.55587384 27 49 C24.31613432 46.1534758 22.45639112 45.10142025 18.625 44.25 C12.47121006 42.12800347 9.46998538 37.86845795 6.5546875 32.1796875 C2.45204013 22.37755397 -0.39705298 10.69953293 0 0 Z " fill="#FDFAF6" transform="translate(907,763)"/>
<path d="M0 0 C1.80307617 0.00483398 1.80307617 0.00483398 3.64257812 0.00976562 C4.88845703 0.01814453 6.13433594 0.02652344 7.41796875 0.03515625 C8.68318359 0.03966797 9.94839844 0.04417969 11.25195312 0.04882812 C14.36983985 0.06059374 17.48763008 0.07703353 20.60546875 0.09765625 C19.14134695 19.94918481 12.9928845 36.41424966 5.40625 54.59765625 C5.13970108 55.23854187 4.87315216 55.87942749 4.598526 56.53973389 C2.7263692 60.9767558 2.7263692 60.9767558 1.60546875 62.09765625 C-6.58722293 62.03511662 -14.4963259 60.09418193 -22.39453125 58.09765625 C-21.84609217 52.65611229 -19.87831109 48.55731366 -17.39453125 43.78515625 C-17.02585937 43.05748047 -16.6571875 42.32980469 -16.27734375 41.58007812 C-13.56384673 36.26697173 -13.56384673 36.26697173 -12.39453125 35.09765625 C-12.48416187 33.40623969 -12.64030801 31.71806023 -12.83203125 30.03515625 C-12.98478516 28.65650391 -12.98478516 28.65650391 -13.140625 27.25 C-13.22441406 26.53972656 -13.30820312 25.82945312 -13.39453125 25.09765625 C-16.03453125 25.42765625 -18.67453125 25.75765625 -21.39453125 26.09765625 C-21.75804687 27.05478516 -21.75804687 27.05478516 -22.12890625 28.03125 C-23.14109523 30.48362145 -24.2116079 32.86262614 -25.34765625 35.2578125 C-30.85713673 46.95253253 -35.12949341 58.5914201 -38.39453125 71.09765625 C-38.85279297 72.82435547 -38.85279297 72.82435547 -39.3203125 74.5859375 C-41.09694155 82.04777952 -42.09815085 89.62193517 -43.08203125 97.22265625 C-43.21375732 98.19291748 -43.3454834 99.16317871 -43.48120117 100.1628418 C-45.99446166 120.99497875 -43.5849524 141.80329106 -41.67144775 162.57965088 C-41.03786063 169.46614591 -40.41674813 176.35374762 -39.8046875 183.2421875 C-39.73927387 183.97516178 -39.67386024 184.70813606 -39.60646439 185.46332169 C-38.49528715 197.99613031 -37.76276638 210.52020088 -37.39453125 223.09765625 C-39.26759954 220.67752993 -40.9180844 218.30277795 -42.33984375 215.59375 C-46.95991703 206.97790893 -51.90642101 199.46797081 -58.39453125 192.09765625 C-71.71938552 176.90603495 -73.12229816 163.55385684 -73.57421875 143.875 C-73.60708984 142.58787109 -73.63996094 141.30074219 -73.67382812 139.97460938 C-73.73695936 137.37592171 -73.78800679 134.77690859 -73.82617188 132.17773438 C-73.85646484 130.96408203 -73.88675781 129.75042969 -73.91796875 128.5 C-73.93778809 127.41195068 -73.95760742 126.32390137 -73.97802734 125.20288086 C-74.58373837 120.68703181 -76.17258865 117.31959885 -79.39453125 114.09765625 C-84.35531491 113.484323 -87.17830137 114.11159387 -91.1730957 117.14453125 C-91.72054443 117.5828125 -92.26799316 118.02109375 -92.83203125 118.47265625 C-94.06078403 119.40114304 -95.29267598 120.3254871 -96.52734375 121.24609375 C-97.16188477 121.72143555 -97.79642578 122.19677734 -98.45019531 122.68652344 C-104.18573165 126.84918039 -110.33831968 130.426752 -116.39453125 134.09765625 C-117.09513672 134.5261084 -117.79574219 134.95456055 -118.51757812 135.39599609 C-144.25492768 151.09765625 -144.25492768 151.09765625 -150.39453125 151.09765625 C-148.73688047 147.43848032 -146.49036398 144.27439594 -144.14453125 141.03515625 C-143.70979492 140.43082764 -143.27505859 139.82649902 -142.82714844 139.20385742 C-135.5774334 129.15656071 -128.18445149 119.21259917 -120.80859375 109.2578125 C-119.62851491 107.66304992 -118.44882543 106.06799915 -117.26953125 104.47265625 C-116.68719727 103.68487793 -116.10486328 102.89709961 -115.50488281 102.08544922 C-111.72495395 96.95342816 -108.03964923 91.76347047 -104.39453125 86.53515625 C-98.55264878 78.17366831 -92.30662145 70.15515545 -85.99609375 62.14453125 C-84.12920312 59.75855396 -82.29770637 57.34752016 -80.47045898 54.93115234 C-62.1461005 30.7693737 -42.27908019 7.64624256 -11.39453125 1.09765625 C-10.64518311 0.92274658 -9.89583496 0.74783691 -9.1237793 0.56762695 C-6.03271009 0.03535142 -3.13643215 -0.01486461 0 0 Z " fill="#FDFAF6" transform="translate(584.39453125,755.90234375)"/>
<path d="M0 0 C5.01026064 4.11954764 8.28836455 8.32053811 9.1484375 14.87109375 C9.3655796 30.87446632 4.99287857 46.75575316 1.67138672 62.31591797 C0.60769457 67.33233259 -0.38960428 72.34743751 -1.25390625 77.40234375 C-1.42277344 78.38525391 -1.59164062 79.36816406 -1.765625 80.38085938 C-2.07703324 82.22545092 -2.37864082 84.07173833 -2.66796875 85.91992188 C-3.9637205 93.5943061 -5.94182489 101.25623633 -12.25 106.3125 C-12.92160156 106.869375 -13.59320312 107.42625 -14.28515625 108 C-18.3960576 110.83626869 -22.59455574 110.42927579 -27.375 110.375 C-28.12458984 110.37048828 -28.87417969 110.36597656 -29.64648438 110.36132812 C-31.49352383 110.34956354 -33.34052213 110.33162865 -35.1875 110.3125 C-34.4144423 98.81291791 -32.78942067 87.45291877 -31.10058594 76.05932617 C-30.09816766 69.23969099 -29.10905091 62.50308501 -28.7890625 55.609375 C-28.10160311 43.24038603 -28.10160311 43.24038603 -24.56005859 39.67333984 C-20.46235596 36.69603193 -16.02138633 34.81315491 -11.28125 33.09423828 C-8.44244906 32.03432217 -5.80279747 30.66199953 -3.125 29.25 C-1.81359955 28.60193688 -0.50162007 27.95503045 0.8125 27.3125 C1.06265873 23.89607241 1.06265873 23.89607241 0.8125 20.3125 C-1.9624088 18.03545228 -1.9624088 18.03545228 -4.890625 18.43359375 C-8.96951936 19.52097673 -12.28555808 21.29791319 -15.9375 23.375 C-22.95096154 27.3125 -22.95096154 27.3125 -25.1875 27.3125 C-24.9685285 22.85206832 -24.70711499 18.39513449 -24.4375 13.9375 C-24.375625 12.66648437 -24.31375 11.39546875 -24.25 10.0859375 C-24.13398437 8.26835937 -24.13398437 8.26835937 -24.015625 6.4140625 C-23.9527832 5.29338379 -23.88994141 4.17270508 -23.82519531 3.01806641 C-23.1875 0.3125 -23.1875 0.3125 -21.34985352 -1.04785156 C-15.1837653 -2.87184966 -5.78852019 -3.12175652 0 0 Z " fill="#FCF8F5" transform="translate(971.1875,475.6875)"/>
<path d="M0 0 C1.38638672 -0.02126953 1.38638672 -0.02126953 2.80078125 -0.04296875 C5.6875 0.1875 5.6875 0.1875 11.6875 2.1875 C12.3475 11.0975 13.0075 20.0075 13.6875 29.1875 C8.89526327 27.27060531 4.43862487 25.00597948 -0.05273438 22.49023438 C-4.21365831 20.30290715 -6.79239878 19.86043601 -11.3125 21.1875 C-12.63218178 22.29278442 -12.63218178 22.29278442 -12.5625 25.0625 C-12.6169145 28.12302103 -12.6169145 28.12302103 -11.01635742 29.76611328 C-8.21510842 32.10296264 -4.89900659 33.50516721 -1.625 35.0625 C0.4238702 36.04146914 2.46014245 37.02777058 4.47331238 38.07841492 C6.62869237 39.20734464 6.62869237 39.20734464 8.74861145 39.95710754 C11.26433887 41.09484166 12.81035877 42.14136268 14.6875 44.1875 C16.39064533 49.12632641 16.88217627 54.16759282 17.4375 59.33203125 C17.62469466 60.82743978 17.81509143 62.32245064 18.00854492 63.81706238 C18.50733245 67.7378201 18.96262487 71.66244074 19.40887451 75.58947754 C19.87259236 79.60132259 20.37750014 83.60795701 20.87890625 87.61523438 C21.85535771 95.46815408 22.78589336 103.32563728 23.6875 111.1875 C17.34066526 113.30311158 9.14976303 113.47456897 2.83984375 111.12890625 C-3.12662787 107.45340036 -6.02880347 102.91612809 -7.84106445 96.24047852 C-9.27475261 89.85017329 -10.1735487 83.42270648 -11.0625 76.9375 C-13.01351376 63.18079375 -15.75156672 49.67294694 -18.71166992 36.10229492 C-20.75836219 26.17321772 -21.99381738 17.52150608 -16.87890625 8.35546875 C-12.63826021 2.48624543 -7.13731317 0.04935901 0 0 Z " fill="#FCF9F5" transform="translate(553.3125,473.8125)"/>
<path d="M0 0 C1.09848518 0.02491013 1.09848518 0.02491013 2.21916199 0.05032349 C4.56034002 0.11127415 6.89846895 0.20469914 9.23828125 0.3046875 C10.00110413 0.33284546 10.763927 0.36100342 11.54986572 0.39001465 C17.05365286 0.59441479 22.55179014 0.87397305 28.05078125 1.1796875 C29.2922995 1.24737839 29.2922995 1.24737839 30.55889893 1.31643677 C40.08459671 1.83946177 49.61228605 2.36782259 59.11328125 3.2421875 C59.85296143 3.3045459 60.5926416 3.3669043 61.35473633 3.43115234 C75.16007758 4.85889678 84.28198465 13.26663572 93.23828125 23.3046875 C95.87092476 27.19263122 96.85762668 29.5563725 96.23828125 34.3046875 C95.17578125 36.1796875 95.17578125 36.1796875 93.23828125 37.3046875 C88.58283798 37.99805139 85.32468723 37.07628107 80.92578125 35.4921875 C75.75372953 33.66446997 70.69490818 32.51097349 65.30078125 31.6171875 C64.24733521 31.43869263 64.24733521 31.43869263 63.17260742 31.2565918 C52.2782338 29.54007513 41.41059685 29.17622266 30.40234375 29.41796875 C28.01564458 29.45005898 25.62892436 29.48061362 23.2421875 29.50976562 C19.53538505 29.55931126 15.82971879 29.61795218 12.12353516 29.70239258 C8.50795225 29.78115774 4.89358932 29.8215461 1.27734375 29.85546875 C-0.37906631 29.9066259 -0.37906631 29.9066259 -2.06893921 29.95881653 C-7.32395193 29.97744012 -10.81984654 29.84477688 -14.95166016 26.39526367 C-18.30454362 23.0471315 -18.95149556 20.78275981 -19.07421875 16.0546875 C-19.00765539 10.96259022 -18.37929522 8.10778071 -14.76171875 4.3046875 C-9.72272687 0.8982311 -6.13060543 -0.2726369 0 0 Z " fill="#232323" transform="translate(810.76171875,375.6953125)"/>
<path d="M0 0 C1.99063144 -0.01165072 3.98122864 -0.03230196 5.97167969 -0.06152344 C8.88652187 -0.10409845 11.80046231 -0.12033684 14.71557617 -0.13061523 C15.59999893 -0.14812332 16.48442169 -0.16563141 17.39564514 -0.18367004 C22.90590353 -0.16429532 26.02081564 0.63086348 30.39916992 4.29516602 C33.99922282 8.25522421 33.89965428 12.50721857 33.75463867 17.63110352 C33.2545719 21.3788567 31.94499622 23.53718753 29.39916992 26.29516602 C26.19215806 28.32681686 23.73032089 28.5277192 19.9699707 28.47460938 C18.88007843 28.46477524 17.79018616 28.4549411 16.66726685 28.44480896 C15.48824799 28.42507523 14.30922913 28.40534149 13.09448242 28.38500977 C10.56453676 28.36454665 8.03458873 28.3443744 5.50463867 28.32446289 C1.54276301 28.28143602 -2.41888422 28.23345288 -6.38061523 28.17871094 C-39.7420816 27.31020179 -39.7420816 27.31020179 -71.60083008 36.29516602 C-75.20524341 36.68695007 -76.98481637 36.70584182 -80.03833008 34.67016602 C-81.60083008 32.29516602 -81.60083008 32.29516602 -81.44848633 29.48266602 C-78.96070866 20.12770482 -68.57048798 10.91805623 -60.44458008 5.98657227 C-52.4295372 2.23981421 -43.30247411 1.95963788 -34.60083008 1.29516602 C-33.05093384 1.16597778 -33.05093384 1.16597778 -31.46972656 1.03417969 C-20.98267462 0.23371313 -10.51440693 0.04285883 0 0 Z " fill="#232322" transform="translate(688.600830078125,376.704833984375)"/>
<path d="M0 0 C0.75667969 -0.00515625 1.51335938 -0.0103125 2.29296875 -0.015625 C4.8125 0.25 4.8125 0.25 8.0546875 1.25 C12.41355878 2.40994911 16.26872416 2.54538001 20.75 2.5 C21.50990234 2.50773438 22.26980469 2.51546875 23.05273438 2.5234375 C26.82284591 2.51055924 30.17931687 2.25373256 33.81640625 1.234375 C41.02300079 -0.76949935 48.07166703 0.22163365 55.2421875 1.89453125 C55.99919952 2.06498459 56.75621155 2.23543793 57.53616333 2.41105652 C59.11863871 2.77026026 60.7000127 3.13434914 62.28027344 3.50317383 C64.69920907 4.06522064 67.12246083 4.60471626 69.546875 5.14257812 C71.09145237 5.49605906 72.63573501 5.85083084 74.1796875 6.20703125 C74.90155243 6.36653763 75.62341736 6.52604401 76.36715698 6.69038391 C82.77816646 8.21748554 82.77816646 8.21748554 84.8125 11.25 C85.20226435 14.36811483 85.31672245 16.36019567 83.75 19.125 C77.91881051 22.51085196 69.32499239 19.21799537 63.25 17.8125 C48.03329865 14.0175416 48.03329865 14.0175416 32.625 15.25 C24.26199092 17.30047508 15.5452617 16.8970973 7.26806641 14.73144531 C-2.69278733 12.77849208 -12.39174993 14.83774549 -22.0625 17.25 C-39.86009752 21.60139499 -39.86009752 21.60139499 -44.125 19.125 C-45.69172245 16.36019567 -45.57726435 14.36811483 -45.1875 11.25 C-42.82196173 7.99869408 -40.16500091 7.52558369 -36.33984375 6.71484375 C-35.17646484 6.46283203 -34.01308594 6.21082031 -32.81445312 5.95117188 C-31.59693359 5.69916016 -30.37941406 5.44714844 -29.125 5.1875 C-27.93455078 4.93162109 -26.74410156 4.67574219 -25.51757812 4.41210938 C-22.07717623 3.67636647 -18.63313534 2.96077263 -15.1875 2.25 C-14.22432861 2.04552246 -13.26115723 1.84104492 -12.26879883 1.63037109 C-8.15897469 0.77290105 -4.21779153 -0.02903815 0 0 Z " fill="#232222" transform="translate(736.1875,601.75)"/>
<path d="M0 0 C2 3 2 3 1.75 5.5625 C1 8 1 8 -1 10 C-2.99609375 10.046875 -2.99609375 10.046875 -5.4375 9.75 C-6.32050781 9.64300781 -7.20351563 9.53601563 -8.11328125 9.42578125 C-12.76583744 8.73954495 -17.38515952 7.90366648 -22 7 C-21.95359375 7.72445313 -21.9071875 8.44890625 -21.859375 9.1953125 C-21.63002148 15.33871035 -21.61994629 19.27415257 -26 24 C-30.35183072 27.93737065 -33.91732898 28.63423042 -39.6015625 28.38671875 C-44.44258326 27.60616328 -47.13138808 24.96251592 -50.3125 21.4375 C-52.70829821 17.97690259 -53.12197814 15.41649175 -53.0625 11.3125 C-53.05347656 10.50425781 -53.04445313 9.69601562 -53.03515625 8.86328125 C-53.02355469 8.24839844 -53.01195312 7.63351562 -53 7 C-53.76183594 7.13277344 -54.52367187 7.26554687 -55.30859375 7.40234375 C-58.53609718 7.95436369 -61.76771595 8.47678855 -65 9 C-65.88945313 9.16371094 -66.77890625 9.32742188 -67.6953125 9.49609375 C-70.0625 9.875 -70.0625 9.875 -74 10 C-76.125 8.375 -76.125 8.375 -77 6 C-76.9375 3.4375 -76.9375 3.4375 -76 1 C-73.18604812 -1.49919216 -70.61178042 -2.64680947 -67 -3.625 C-66.154375 -3.86476563 -65.30875 -4.10453125 -64.4375 -4.3515625 C-46.56995507 -7.7220312 -15.87102333 -10.64381278 0 0 Z " fill="#232222" transform="translate(710,436)"/>
<path d="M0 0 C1.77734375 1.9375 1.77734375 1.9375 3 4 C2.75925978 7.37036311 2.41201979 8.58798021 0 11 C-5.1979039 11.36339902 -9.89731499 10.59805797 -14.9375 9.5 C-15.62134766 9.35691406 -16.30519531 9.21382813 -17.00976562 9.06640625 C-18.67449514 8.71716229 -20.33744875 8.35947054 -22 8 C-21.95359375 8.72445313 -21.9071875 9.44890625 -21.859375 10.1953125 C-21.6292962 16.35813759 -21.68164139 20.20182377 -26 25 C-30.24527151 28.73069314 -34.15360732 29.36788263 -39.65234375 29.26953125 C-43.47557799 28.83059088 -46.16760263 27.60492504 -49 25 C-53.05140168 19.69002679 -53.54173555 14.50082658 -53 8 C-53.85722656 8.2165625 -54.71445312 8.433125 -55.59765625 8.65625 C-67.65913105 11.59342988 -67.65913105 11.59342988 -73 11 C-75 9 -75 9 -75.3125 6.0625 C-74.95879467 2.5961878 -74.58748413 2.12669929 -72 0 C-54.52505943 -9.03876236 -17.41451382 -8.70725691 0 0 Z " fill="#222221" transform="translate(879,435)"/>
<path d="M0 0 C1.27787132 -0.00786278 1.27787132 -0.00786278 2.58155823 -0.0158844 C4.38289297 -0.02230629 6.18426964 -0.02096542 7.9855957 -0.01245117 C10.74050714 -0.00394761 13.49334072 -0.03268794 16.24804688 -0.06445312 C17.9986973 -0.06606541 19.74935139 -0.06548708 21.5 -0.0625 C22.32302109 -0.07373398 23.14604218 -0.08496796 23.9940033 -0.09654236 C27.77275799 -0.05055481 29.72081674 0.01450467 32.87524414 2.23413086 C34.31640625 4.43359375 34.31640625 4.43359375 34.19140625 8.12109375 C33.90265625 9.21421875 33.61390625 10.30734375 33.31640625 11.43359375 C29.8974195 13.14308713 25.98479012 12.59680624 22.22265625 12.6015625 C20.86895935 12.6065551 20.86895935 12.6065551 19.48791504 12.61164856 C17.57804881 12.61671569 15.66817372 12.61905695 13.75830078 12.61889648 C10.82830324 12.62108486 7.89868097 12.63924793 4.96875 12.65820312 C3.11588671 12.66113664 1.26302162 12.66312172 -0.58984375 12.6640625 C-1.91018616 12.67484077 -1.91018616 12.67484077 -3.25720215 12.68583679 C-9.45476827 12.66241923 -9.45476827 12.66241923 -11.68359375 10.43359375 C-12.25142087 4.18749548 -12.25142087 4.18749548 -10.40513611 1.7361908 C-7.38690725 -0.54753808 -3.64145703 -0.01295687 0 0 Z " fill="#201F1F" transform="translate(744.68359375,639.56640625)"/>
<path d="M0 0 C0.82886719 0.03222656 1.65773438 0.06445312 2.51171875 0.09765625 C6.1643006 0.33311194 8.47783573 0.67675545 11.625 2.625 C13.61223927 6.0575042 12.97311023 8.24657484 12 12 C9.39994603 14.60005397 7.57014239 14.26105409 4.02539062 14.2734375 C3.25388672 14.26570312 2.48238281 14.25796875 1.6875 14.25 C0.92759766 14.25773438 0.16769531 14.26546875 -0.61523438 14.2734375 C-5.92690615 14.25497817 -10.07262897 13.92737103 -14 10 C-14.44935048 6.55497967 -14.37778761 4.65254224 -12.625 1.625 C-8.52547712 -0.91279988 -4.69427696 -0.33677829 0 0 Z " fill="#232222" transform="translate(734,546)"/>
<path d="M0 0 C1.05574219 -0.03867187 2.11148438 -0.07734375 3.19921875 -0.1171875 C4.194375 -0.15457031 5.18953125 -0.19195313 6.21484375 -0.23046875 C9.70675096 0.31327109 10.86533821 1.38530653 12.94921875 4.1953125 C12.88671875 7.8203125 12.88671875 7.8203125 11.94921875 11.1953125 C5.93140878 15.20718581 -4.0073858 15.16522269 -11.05078125 14.1953125 C-12.84765625 12.8984375 -12.84765625 12.8984375 -14.05078125 11.1953125 C-14.41008965 7.84176743 -14.66594811 5.34875036 -13.05078125 2.3203125 C-9.04047985 0.06451796 -4.48538817 0.28715673 0 0 Z " fill="#232222" transform="translate(782.05078125,545.8046875)"/>
<path d="M0 0 C1.83319859 3.13555517 2.24756341 5.41232584 2.23046875 9.02734375 C2.22853516 9.98447266 2.22660156 10.94160156 2.22460938 11.92773438 C2.21236328 12.92095703 2.20011719 13.91417969 2.1875 14.9375 C2.18685547 15.92685547 2.18621094 16.91621094 2.18554688 17.93554688 C2.1582447 22.44647255 1.99276058 26.58382464 1 31 C0.67 31 0.34 31 0 31 C-1.1171145 25.61834524 -1.14899997 20.40549251 -1.125 14.9375 C-1.12886719 14.05255859 -1.13273438 13.16761719 -1.13671875 12.25585938 C-1.13040231 8.04595477 -1.0746695 4.10250819 0 0 Z " fill="#2C2A2A" transform="translate(540,861)"/>
<path d="M0 0 C4.98975076 -0.09375315 9.96080644 -0.09676756 14.9375 0.3125 C15.64777344 0.37050781 16.35804688 0.42851563 17.08984375 0.48828125 C19.52854832 1.14159474 20.52045174 1.96444316 22 4 C21.6875 7.6875 21.6875 7.6875 21 11 C20.67 11 20.34 11 20 11 C19.896875 10.05125 19.79375 9.1025 19.6875 8.125 C19.31460705 4.70892499 19.31460705 4.70892499 16 3 C13.23344676 2.85754103 10.57346694 2.81230555 7.8125 2.875 C6.68811523 2.88853516 6.68811523 2.88853516 5.54101562 2.90234375 C3.69387346 2.92587422 1.84689588 2.96174439 0 3 C0 2.01 0 1.02 0 0 Z " fill="#2E2C2C" transform="translate(724,546)"/>
<path d="M0 0 C1.10844919 3.32534757 0.84454356 5.62182575 0 9 C-0.33 9 -0.66 9 -1 9 C-1 6.69 -1 4.38 -1 2 C-1.76183594 2.13277344 -2.52367187 2.26554687 -3.30859375 2.40234375 C-9.5309155 3.46658605 -15.71867797 4.3718678 -22 5 C-22 4.01 -22 3.02 -22 2 C-20.948125 2.29197266 -20.948125 2.29197266 -19.875 2.58984375 C-16.48369251 3.073658 -14.28044963 2.50395557 -11 1.5625 C-7.19017531 0.47883813 -3.967794 -0.18234347 0 0 Z " fill="#090908" transform="translate(658,441)"/>
<path d="M0 0 C1.46953125 0.01450195 1.46953125 0.01450195 2.96875 0.02929688 C4.49242187 0.06700195 4.49242187 0.06700195 6.046875 0.10546875 C7.59375 0.12577148 7.59375 0.12577148 9.171875 0.14648438 C11.71407292 0.18179268 14.25520723 0.23110839 16.796875 0.29296875 C16.796875 0.62296875 16.796875 0.95296875 16.796875 1.29296875 C14.486875 1.29296875 12.176875 1.29296875 9.796875 1.29296875 C9.796875 1.95296875 9.796875 2.61296875 9.796875 3.29296875 C3.526875 3.29296875 -2.743125 3.29296875 -9.203125 3.29296875 C-5.13411969 0.24121477 -4.66634989 -0.08138982 0 0 Z " fill="#302E2D" transform="translate(837.203125,429.70703125)"/>
<path d="M0 0 C0 0.33 0 0.66 0 1 C-5.95414663 2.44300495 -11.89340374 3.28647754 -18 3.75 C-19.27875 3.84796875 -20.5575 3.9459375 -21.875 4.046875 C-25 4 -25 4 -27 2 C-17.91214765 0.60950893 -9.21627045 -0.30892527 0 0 Z " fill="#E4E3E1" transform="translate(845,838)"/>
<path d="M0 0 C0.886875 -0.01417969 1.77375 -0.02835938 2.6875 -0.04296875 C5 0.1875 5 0.1875 7 2.1875 C4.35541621 3.50979189 2.32238699 3.28427194 -0.625 3.25 C-1.62789062 3.24097656 -2.63078125 3.23195313 -3.6640625 3.22265625 C-4.43492187 3.21105469 -5.20578125 3.19945312 -6 3.1875 C-6.33 2.5275 -6.66 1.8675 -7 1.1875 C-4.52224905 -0.05137548 -2.76346293 0.02008331 0 0 Z " fill="#2C2B2A" transform="translate(736,601.8125)"/>
<path d="M0 0 C2.42130331 3.63195496 2.21022785 5.38349348 2.125 9.6875 C2.10695313 10.86699219 2.08890625 12.04648437 2.0703125 13.26171875 C2.03550781 14.61716797 2.03550781 14.61716797 2 16 C-0.25090196 12.62364705 -0.39443591 10.86259337 -0.6875 6.875 C-0.81705078 5.26238281 -0.81705078 5.26238281 -0.94921875 3.6171875 C-0.96597656 2.75351562 -0.98273437 1.88984375 -1 1 C-0.67 0.67 -0.34 0.34 0 0 Z " fill="#F1F0EE" transform="translate(978,485)"/>
<path d="M0 0 C2.47717167 3.71575751 2.30345742 5.59986738 2 10 C1 12.9375 1 12.9375 0 15 C-0.33 15 -0.66 15 -1 15 C-1.18451025 4.44191344 -1.18451025 4.44191344 0 0 Z " fill="#191818" transform="translate(931,535)"/>
<path d="M0 0 C1.485 0.99 1.485 0.99 3 2 C3.22137393 4.62697064 3.28162025 7.00893964 3.1875 9.625 C3.16719727 10.68460937 3.16719727 10.68460937 3.14648438 11.765625 C3.1111104 13.51074128 3.05730221 15.25546608 3 17 C2.67 17 2.34 17 2 17 C1.67 15.02 1.34 13.04 1 11 C0.67 11 0.34 11 0 11 C0 7.37 0 3.74 0 0 Z " fill="#2F2D2C" transform="translate(565,475)"/>
<path d="M0 0 C3.57692308 4.76923077 3.57692308 4.76923077 3 9 C2.1156537 11.72927564 1.08274555 14.33825051 0 17 C-0.33 17 -0.66 17 -1 17 C-0.67 11.39 -0.34 5.78 0 0 Z " fill="#DFDDDA" transform="translate(903,122)"/>
<path d="M0 0 C5.61 0 11.22 0 17 0 C17 0.33 17 0.66 17 1 C16.02417969 1.01417969 15.04835938 1.02835938 14.04296875 1.04296875 C12.13451172 1.11451172 12.13451172 1.11451172 10.1875 1.1875 C8.29064453 1.23970703 8.29064453 1.23970703 6.35546875 1.29296875 C2.8234665 1.65620394 2.8234665 1.65620394 1.05078125 4.55078125 C0.70402344 5.35902344 0.35726562 6.16726563 0 7 C-1 5 -1 5 0 0 Z " fill="#B9B6B4" transform="translate(933,597)"/>
<path d="M0 0 C0.99 0.33 1.98 0.66 3 1 C5.00875442 0.72428861 7.01178687 0.39764263 9 0 C6.76504572 2.23495428 4.97585464 3.0024791 2.0625 4.1875 C1.18722656 4.55230469 0.31195312 4.91710937 -0.58984375 5.29296875 C-3 6 -3 6 -6 5 C-4.68 4.67 -3.36 4.34 -2 4 C-2 3.34 -2 2.68 -2 2 C-1.34 2 -0.68 2 0 2 C0 1.34 0 0.68 0 0 Z " fill="#131212" transform="translate(675,264)"/>
<path d="M0 0 C1.65 0.99 3.3 1.98 5 3 C4.01 4.485 4.01 4.485 3 6 C2.34 6 1.68 6 1 6 C1 6.66 1 7.32 1 8 C0.34 8 -0.32 8 -1 8 C-0.67 5.36 -0.34 2.72 0 0 Z " fill="#ECE9E9" transform="translate(778,121)"/>
<path d="M0 0 C2.875 -0.125 2.875 -0.125 6 0 C6.66 0.66 7.32 1.32 8 2 C6.02 2 4.04 2 2 2 C2 3.65 2 5.3 2 7 C0 5 0 5 -0.125 2.375 C-0.08375 1.59125 -0.0425 0.8075 0 0 Z " fill="#E7E5E4" transform="translate(907,763)"/>
<path d="M0 0 C0.66 0.33 1.32 0.66 2 1 C2 3.64 2 6.28 2 9 C-0.15377564 6.37801226 -1.40072174 4.35595828 -2 1 C-1.34 0.67 -0.68 0.34 0 0 Z " fill="#F0EEED" transform="translate(545,970)"/>
<path d="M0 0 C1.2380014 3.57644848 0.74926071 6.33694766 0 10 C-0.66 9.67 -1.32 9.34 -2 9 C-2.125 5.625 -2.125 5.625 -2 2 C-1.34 1.34 -0.68 0.68 0 0 Z " fill="#F0EFED" transform="translate(906,878)"/>
<path d="M0 0 C2.64 0 5.28 0 8 0 C6.1875 1.5625 6.1875 1.5625 4 3 C3.01 2.67 2.02 2.34 1 2 C1 3.98 1 5.96 1 8 C0.67 8 0.34 8 0 8 C0 5.36 0 2.72 0 0 Z " fill="#C2BFBE" transform="translate(688,443)"/>
<path d="M0 0 C0 0.99 0 1.98 0 3 C-6.0546875 3.1953125 -6.0546875 3.1953125 -8 3 C-8.66 2.34 -9.32 1.68 -10 1 C-6.59437148 0.22157062 -3.49234244 -0.09978121 0 0 Z " fill="#2D2D2B" transform="translate(654,431)"/>
<path d="M0 0 C2 2 2 2 2.3125 4.875 C1.96732652 8.32673483 1.14126508 9.38980351 -1 12 C-1.02698189 10.37509046 -1.04638757 8.75005367 -1.0625 7.125 C-1.07410156 6.22007812 -1.08570313 5.31515625 -1.09765625 4.3828125 C-1 2 -1 2 0 0 Z " fill="#2D2D2C" transform="translate(576,423)"/>
<path d="M0 0 C1.65 0 3.3 0 5 0 C6.10844919 3.32534757 5.84454356 5.62182575 5 9 C4.67 9 4.34 9 4 9 C4 6.69 4 4.38 4 2 C2.68 1.67 1.36 1.34 0 1 C0 0.67 0 0.34 0 0 Z " fill="#161615" transform="translate(653,441)"/>
<path d="M0 0 C2.97 0 5.94 0 9 0 C7.515 1.485 7.515 1.485 6 3 C2.3125 2.6875 2.3125 2.6875 -1 2 C-0.67 1.34 -0.34 0.68 0 0 Z " fill="#2C2B2B" transform="translate(725,253)"/>
<path d="M0 0 C0 3.15081975 -0.27898465 4.41847698 -2 7 C-4.125 7.75 -4.125 7.75 -6 8 C-2.25 2.25 -2.25 2.25 0 0 Z " fill="#151514" transform="translate(314,923)"/>
<path d="M0 0 C0.33 0 0.66 0 1 0 C1 3.63 1 7.26 1 11 C0.01 10.67 -0.98 10.34 -2 10 C-1.34 6.7 -0.68 3.4 0 0 Z " fill="#2C2A2A" transform="translate(916,839)"/>
<path d="M0 0 C2.475 0.495 2.475 0.495 5 1 C5.33 2.65 5.66 4.3 6 6 C5.01 6 4.02 6 3 6 C0 2.66666667 0 2.66666667 0 0 Z " fill="#F0EFEE" transform="translate(1030,838)"/>
<path d="M0 0 C0.33 0 0.66 0 1 0 C1.33 3.3 1.66 6.6 2 10 C1.01 10 0.02 10 -1 10 C-0.67 6.7 -0.34 3.4 0 0 Z " fill="#363333" transform="translate(979,501)"/>
<path d="M0 0 C1.485 0.99 1.485 0.99 3 2 C3.1875 5.125 3.1875 5.125 3 8 C2.01 8 1.02 8 0 8 C0 5.36 0 2.72 0 0 Z " fill="#333130" transform="translate(554,947)"/>
<path d="M0 0 C1.485 0.99 1.485 0.99 3 2 C3.1875 5.125 3.1875 5.125 3 8 C2.34 8 1.68 8 1 8 C-0.35439668 5.29120665 -0.06501451 2.99066732 0 0 Z " fill="#302E2D" transform="translate(550,900)"/>
<path d="M0 0 C2.64 0.33 5.28 0.66 8 1 C7.67 1.66 7.34 2.32 7 3 C4.69 2.67 2.38 2.34 0 2 C0 1.34 0 0.68 0 0 Z " fill="#EDECEA" transform="translate(718,747)"/>
<path d="M0 0 C1.2065625 0.0309375 1.2065625 0.0309375 2.4375 0.0625 C2.4375 0.7225 2.4375 1.3825 2.4375 2.0625 C3.0975 2.3925 3.7575 2.7225 4.4375 3.0625 C1.5625 3.1875 1.5625 3.1875 -1.5625 3.0625 C-2.2225 2.4025 -2.8825 1.7425 -3.5625 1.0625 C-2.5625 0.0625 -2.5625 0.0625 0 0 Z " fill="#1D1C1B" transform="translate(803.5625,616.9375)"/>
<path d="M0 0 C1.65 0 3.3 0 5 0 C5.33 0.99 5.66 1.98 6 3 C4.02 3 2.04 3 0 3 C0 2.01 0 1.02 0 0 Z " fill="#2D2D2C" transform="translate(820,431)"/>
</svg>
