<?xml version="1.0" encoding="UTF-8"?>
<svg version="1.1" xmlns="http://www.w3.org/2000/svg" width="982" height="982">
<path d="M0 0 C1.37718645 0.19060872 2.75446916 0.38052298 4.13183594 0.56982422 C67.4628016 9.39767936 129.93113536 30.29752903 185 63 C185.81307617 63.48259277 186.62615234 63.96518555 187.46386719 64.46240234 C213.65178281 80.12283511 238.87227459 98.05311268 261.41796875 118.6640625 C263.51716131 120.56318073 265.63689666 122.42862837 267.7734375 124.28515625 C277.57395152 132.844417 287.29871671 141.67838038 295.83203125 151.515625 C297.98251382 153.97996178 300.19502457 156.37051737 302.42993164 158.7578125 C308.23101957 164.96392118 313.73060207 171.33157273 319 178 C319.50225098 178.62970703 320.00450195 179.25941406 320.52197266 179.90820312 C338.81287593 202.87038816 355.07664821 227.14315425 369 253 C369.4626123 253.85819336 369.92522461 254.71638672 370.40185547 255.60058594 C398.7248771 308.41246812 417.10998345 365.58398949 425 425 C425.16226074 426.13614746 425.32452148 427.27229492 425.49169922 428.44287109 C430.96342782 467.9082077 430.73981309 511.5918586 425 551 C424.80939128 552.37718645 424.61947702 553.75446916 424.43017578 555.13183594 C415.60232064 618.4628016 394.70247097 680.93113536 362 736 C361.51740723 736.81307617 361.03481445 737.62615234 360.53759766 738.46386719 C344.87716489 764.65178281 326.94688732 789.87227459 306.3359375 812.41796875 C304.43681927 814.51716131 302.57137163 816.63689666 300.71484375 818.7734375 C292.155583 828.57395152 283.32161962 838.29871671 273.484375 846.83203125 C271.02003822 848.98251382 268.62948263 851.19502457 266.2421875 853.42993164 C260.03607882 859.23101957 253.66842727 864.73060207 247 870 C246.37029297 870.50225098 245.74058594 871.00450195 245.09179688 871.52197266 C222.12961184 889.81287593 197.85684575 906.07664821 172 920 C171.14180664 920.4626123 170.28361328 920.92522461 169.39941406 921.40185547 C116.58753188 949.7248771 59.41601051 968.10998345 0 976 C-1.70422119 976.24339111 -1.70422119 976.24339111 -3.44287109 976.49169922 C-42.9082077 981.96342782 -86.5918586 981.73981309 -126 976 C-127.37718645 975.80939128 -128.75446916 975.61947702 -130.13183594 975.43017578 C-193.4628016 966.60232064 -255.93113536 945.70247097 -311 913 C-311.81307617 912.51740723 -312.62615234 912.03481445 -313.46386719 911.53759766 C-339.65178281 895.87716489 -364.87227459 877.94688732 -387.41796875 857.3359375 C-389.51716131 855.43681927 -391.63689666 853.57137163 -393.7734375 851.71484375 C-403.57395152 843.155583 -413.29871671 834.32161962 -421.83203125 824.484375 C-423.98251382 822.02003822 -426.19502457 819.62948263 -428.42993164 817.2421875 C-434.23101957 811.03607882 -439.73060207 804.66842727 -445 798 C-445.50225098 797.37029297 -446.00450195 796.74058594 -446.52197266 796.09179688 C-464.81287593 773.12961184 -481.07664821 748.85684575 -495 723 C-495.4626123 722.14180664 -495.92522461 721.28361328 -496.40185547 720.39941406 C-524.7248771 667.58753188 -543.10998345 610.41601051 -551 551 C-551.16226074 549.86385254 -551.32452148 548.72770508 -551.49169922 547.55712891 C-556.96342782 508.0917923 -556.73981309 464.4081414 -551 425 C-550.80939128 423.62281355 -550.61947702 422.24553084 -550.43017578 420.86816406 C-541.60232064 357.5371984 -520.70247097 295.06886464 -488 240 C-487.27611084 238.78038574 -487.27611084 238.78038574 -486.53759766 237.53613281 C-470.87716489 211.34821719 -452.94688732 186.12772541 -432.3359375 163.58203125 C-430.43681927 161.48283869 -428.57137163 159.36310334 -426.71484375 157.2265625 C-418.155583 147.42604848 -409.32161962 137.70128329 -399.484375 129.16796875 C-397.02003822 127.01748618 -394.62948263 124.80497543 -392.2421875 122.57006836 C-386.03607882 116.76898043 -379.66842727 111.26939793 -373 106 C-372.37029297 105.49774902 -371.74058594 104.99549805 -371.09179688 104.47802734 C-348.12961184 86.18712407 -323.85684575 69.92335179 -298 56 C-297.14180664 55.5373877 -296.28361328 55.07477539 -295.39941406 54.59814453 C-242.58753188 26.2751229 -185.41601051 7.89001655 -126 0 C-124.86385254 -0.16226074 -123.72770508 -0.32452148 -122.55712891 -0.49169922 C-83.0917923 -5.96342782 -39.4081414 -5.73981309 0 0 Z " fill="#FEFCF8" transform="translate(554,3)"/>
<path d="M0 0 C2 2 2 2 2.13525391 3.87939453 C2.08288574 4.62302246 2.03051758 5.36665039 1.9765625 6.1328125 C1.925 6.93847656 1.8734375 7.74414062 1.8203125 8.57421875 C1.75585938 9.41597656 1.69140625 10.25773437 1.625 11.125 C1.56828125 11.97449219 1.5115625 12.82398437 1.453125 13.69921875 C1.31149023 15.8001345 1.15695674 17.90017334 1 20 C4.14812522 18.12882881 7.29305448 16.25234715 10.4375 14.375 C11.31599609 13.85292969 12.19449219 13.33085938 13.09960938 12.79296875 C18.19509372 9.74695966 23.14296292 6.59680952 27.96923828 3.13720703 C31.46122804 1.18172635 34.08768086 1.45090258 38 2 C40 4 40 4 40.27734375 7.45703125 C40.14349843 12.70305721 38.86090147 17.62623807 37.5625 22.6875 C37.1048322 24.52458112 36.64778061 26.36181588 36.19140625 28.19921875 C35.98717041 29.00190186 35.78293457 29.80458496 35.57250977 30.6315918 C34.98138559 33.07700573 34.47774165 35.53016063 34 38 C34.93457031 37.46632812 35.86914062 36.93265625 36.83203125 36.3828125 C45.25345411 31.5985057 53.73919673 26.97370574 62.35083008 22.53955078 C66.81819723 20.22121983 71.0911853 17.75119808 75.29174805 14.97558594 C77.68468638 13.60897431 79.32037347 13.38751394 82 14 C83.6171875 15.12890625 83.6171875 15.12890625 85 17 C86.62140971 30.0933193 83.45439193 42.80448034 79 55 C81.2754489 53.90464598 83.54577543 52.80071362 85.8125 51.6875 C86.51938965 51.34082275 87.2262793 50.99414551 87.95458984 50.63696289 C92.09661785 48.56775095 96.11612873 46.37528013 100.08203125 43.984375 C100.92209717 43.47946533 101.76216309 42.97455566 102.62768555 42.4543457 C104.26961215 41.45705467 105.90297563 40.44550179 107.52661133 39.41870117 C113.2105018 35.97085745 113.2105018 35.97085745 117.4921875 36.12890625 C120 37 120 37 121 38 C122.25219544 51.7500692 118.7948034 70.3077949 111 82 C116.61618026 80.37822825 122.17417171 78.62561074 127.70703125 76.73828125 C128.87041016 76.34189453 130.03378906 75.94550781 131.23242188 75.53710938 C133.64021884 74.71349306 136.04645021 73.88528696 138.45117188 73.05273438 C139.60810547 72.66021484 140.76503906 72.26769531 141.95703125 71.86328125 C142.99835205 71.50532471 144.03967285 71.14736816 145.11254883 70.77856445 C147.93472493 70.01760059 150.09865325 69.68827464 153 70 C155 72 155 72 155.31640625 75.14453125 C154.96295232 79.45143284 153.73906937 82.82374496 151.9375 86.6875 C151.62603027 87.3779541 151.31456055 88.0684082 150.99365234 88.77978516 C148.07710003 95.11140826 144.64012618 101.05651713 141 107 C140.67 107.66 140.34 108.32 140 109 C141.26183105 108.98952637 142.52366211 108.97905273 143.82373047 108.96826172 C148.49394914 108.93213101 153.16415539 108.90912484 157.83447266 108.89013672 C159.85793127 108.88006329 161.88137528 108.86640405 163.90478516 108.84912109 C166.80895589 108.82493153 169.71293461 108.81353051 172.6171875 108.8046875 C173.52556366 108.79436493 174.43393982 108.78404236 175.36984253 108.77340698 C176.21056305 108.77325592 177.05128357 108.77310486 177.91748047 108.77294922 C179.03000687 108.76628738 179.03000687 108.76628738 180.16500854 108.75949097 C182 109 182 109 184 111 C183.98464538 115.38374312 181.84568016 117.64313895 178.84741211 120.65698242 C177.99481812 121.47646362 177.99481812 121.47646362 177.125 122.3125 C176.25403687 123.16581909 176.25403687 123.16581909 175.36547852 124.03637695 C169.2250434 129.93745478 162.68476196 135.24010395 155 139 C155.65895264 139.13575439 156.31790527 139.27150879 156.99682617 139.41137695 C164.33452067 140.925301 171.66864609 142.45566667 179 144 C180.17828369 144.2470166 180.17828369 144.2470166 181.38037109 144.49902344 C183.21376475 144.8865272 185.04456518 145.28625214 186.875 145.6875 C188.32519531 146.00267578 188.32519531 146.00267578 189.8046875 146.32421875 C192 147 192 147 194 149 C194.125 151.625 194.125 151.625 194 154 C183.46193515 159.63792325 172.93805398 165.16918981 162 170 C163.30439792 171.10072117 164.6088183 172.20141573 165.91333008 173.30200195 C167.06623731 174.27731115 168.21707994 175.25506553 169.3659668 176.23510742 C172.53475684 178.93539701 175.72681871 181.59375335 178.98046875 184.19140625 C179.62097168 184.7131543 180.26147461 185.23490234 180.92138672 185.77246094 C182.16284889 186.78345285 183.41558967 187.78078139 184.68017578 188.76269531 C187.68650378 191.24071104 188.93157669 192.40630687 189.38671875 196.35546875 C189.25910156 197.22816406 189.13148438 198.10085938 189 199 C187.43979133 199.65134925 185.87671421 200.29582964 184.3125 200.9375 C183.00732422 201.47697266 183.00732422 201.47697266 181.67578125 202.02734375 C179.11820735 202.9570312 176.6778677 203.54162625 174 204 C174.39832031 204.53109375 174.79664063 205.0621875 175.20703125 205.609375 C176.8046875 207.73958333 178.40234375 209.86979167 180 212 C180.58136719 212.60328125 181.16273438 213.2065625 181.76171875 213.828125 C183.66337948 217.16352994 182.91926793 219.35449114 182 223 C180.49609375 225.796875 180.49609375 225.796875 178.4375 228.75 C177.62657858 229.97025185 176.8196505 231.19316218 176.015625 232.41796875 C175.55091797 233.12228027 175.08621094 233.8265918 174.60742188 234.55224609 C171.60814023 239.1194997 168.63740239 243.69922757 165.76223755 248.34558105 C164.72689416 249.99956689 163.65688923 251.63170038 162.58569336 253.26269531 C156.37215442 263.37147987 154.74945044 273.41984323 153 285 C152.70559612 286.80507787 152.40832879 288.60969113 152.1081543 290.41381836 C151.20029921 295.91594223 150.34590033 301.4255599 149.5 306.9375 C149.35070038 307.90215179 149.20140076 308.86680359 149.0475769 309.86068726 C146.46647093 326.5449136 144.10321545 343.24846035 142 360 C142.99036255 359.96193237 142.99036255 359.96193237 144.00073242 359.9230957 C152.63814856 359.72939621 158.2383405 361.81076694 164.875 367.4375 C172.36664315 376.47154026 174.99282484 385.35810878 174 397 C172.79361724 408.16617506 170.63714576 419.02559416 167.91186523 429.91137695 C166.26510698 436.58683896 165.00628958 443.28191216 163.875 450.0625 C158.66565014 480.85842721 158.66565014 480.85842721 147.98901367 488.68212891 C140.59971894 493.5780922 134.19880072 494.55151399 125.4375 494.25 C124.42880859 494.23195313 123.42011719 494.21390625 122.38085938 494.1953125 C119.91954395 494.14865249 117.46030429 494.0832157 115 494 C114.81630859 495.95486328 114.81630859 495.95486328 114.62890625 497.94921875 C112.27968259 518.87978018 103.44673768 543.77728602 90.71217346 560.71264648 C86.44901345 566.54317019 86.32457651 571.54909477 86.4765625 578.609375 C86.48090302 579.72253082 86.48524353 580.83568665 86.48971558 581.98257446 C86.51023816 585.57240221 86.56681783 589.16060283 86.625 592.75 C86.64698382 595.20262123 86.6671643 597.65525929 86.68554688 600.10791016 C86.83149266 616.41021771 87.12769363 632.71849431 88 649 C88.91418701 648.97462158 89.82837402 648.94924316 90.77026367 648.9230957 C108.04485056 648.64460167 121.93679704 653.9022845 134.60546875 665.67578125 C136.73900092 667.74666484 138.81164076 669.85974538 140.875 672 C148.05925417 679.22718796 156.15981601 684.6714612 165.0625 689.5 C172.0640578 693.31304722 178.0606715 697.6461196 184 703 C184.54849609 703.48968262 185.09699219 703.97936523 185.66210938 704.48388672 C187.42827129 706.0643174 189.18524668 707.65416722 190.9375 709.25 C191.75383911 709.99310425 191.75383911 709.99310425 192.58666992 710.7512207 C194.90081023 712.89720424 196.94118184 714.91332325 198.71801758 717.53173828 C201.59616472 720.64482992 204.36683795 721.3710751 208.359375 722.2890625 C209.45206696 722.56614044 209.45206696 722.56614044 210.5668335 722.84881592 C212.13737892 723.24670289 213.70984166 723.6370825 215.28393555 724.02069092 C219.49887902 725.05356279 223.69467384 726.1584932 227.890625 727.265625 C228.74438721 727.4903952 229.59814941 727.71516541 230.4777832 727.94674683 C249.53735056 733.02589948 268.02501023 740.00186001 286.25 747.5 C286.87318115 747.75561707 287.4963623 748.01123413 288.13842773 748.27459717 C299.02256034 752.76435637 299.02256034 752.76435637 303 756 C276.32998416 781.20896689 276.32998416 781.20896689 264 791 C263.36739258 791.50515137 262.73478516 792.01030273 262.08300781 792.53076172 C239.12316631 810.81760018 214.85295847 827.07874143 189 841 C188.14180664 841.4626123 187.28361328 841.92522461 186.39941406 842.40185547 C133.58753188 870.7248771 76.41601051 889.10998345 17 897 C15.86385254 897.16226074 14.72770508 897.32452148 13.55712891 897.49169922 C-25.9082077 902.96342782 -69.5918586 902.73981309 -109 897 C-110.37718645 896.80939128 -111.75446916 896.61947702 -113.13183594 896.43017578 C-176.4628016 887.60232064 -238.93113536 866.70247097 -294 834 C-294.81307617 833.51740723 -295.62615234 833.03481445 -296.46386719 832.53759766 C-322.65178281 816.87716489 -347.87227459 798.94688732 -370.41796875 778.3359375 C-372.51365266 776.43999351 -374.6292947 774.57672131 -376.76171875 772.72265625 C-381.12284409 768.91324261 -385.39027806 765.0116067 -389.625 761.0625 C-390.34945312 760.39798828 -391.07390625 759.73347656 -391.8203125 759.04882812 C-396.45976099 754.71615476 -400.37948476 750.21545205 -404 745 C-396.81199711 741.15380613 -389.45239547 738.1099432 -381.79492188 735.32492065 C-379.82579399 734.60706161 -377.86224644 733.87509153 -375.8984375 733.14282227 C-369.71761026 730.86667376 -363.63378791 728.80941202 -357.1953125 727.36328125 C-343.53628384 724.27762233 -336.72689734 720.48448379 -328.96484375 708.6484375 C-328.46968262 707.86307617 -327.97452148 707.07771484 -327.46435547 706.26855469 C-325.26724504 702.86482843 -322.78001653 699.72224506 -320.25 696.5625 C-319.5856897 695.71522339 -319.5856897 695.71522339 -318.90795898 694.85083008 C-315.22943307 690.18416587 -311.30526913 685.79727998 -307.2578125 681.4453125 C-305.31501563 679.34117609 -303.46383928 677.19417054 -301.625 675 C-286.39326865 657.63795657 -265.51151989 643.56738118 -241.91418457 641.84802246 C-236.81665982 641.64437785 -231.72426305 641.72332459 -226.625 641.8125 C-225.09897178 641.82759794 -223.57292884 641.84127717 -222.046875 641.85351562 C-218.36426956 641.88606191 -214.68223444 641.93755125 -211 642 C-210.93941406 640.71867188 -210.87882813 639.43734375 -210.81640625 638.1171875 C-210.73185464 636.36978761 -210.64721437 634.62239201 -210.5625 632.875 C-210.52318359 632.03839844 -210.48386719 631.20179688 -210.44335938 630.33984375 C-210.20182521 625.39768319 -209.88847334 620.4686216 -209.5078125 615.53515625 C-208.92531956 607.39466502 -208.53171937 599.26473946 -208.37524414 591.10522461 C-208.33344405 589.41126361 -208.27193727 587.7176734 -208.19067383 586.02514648 C-207.58959277 573.19671338 -209.71022013 565.75062428 -217.73558044 555.71487427 C-230.07568498 538.9785563 -237.07341742 514.37753961 -239 494 C-239.64437012 494.02618408 -240.28874023 494.05236816 -240.95263672 494.0793457 C-243.92650079 494.1845092 -246.89997223 494.24869732 -249.875 494.3125 C-250.88820313 494.35439453 -251.90140625 494.39628906 -252.9453125 494.43945312 C-261.26107026 494.57271847 -267.87136224 492.76216531 -274.12060547 487.06762695 C-281.7902355 479.12156578 -283.74558441 469.60423898 -285.4375 459 C-285.85840864 456.50482461 -286.28163477 454.01003919 -286.70703125 451.515625 C-286.91924316 450.26201172 -287.13145508 449.00839844 -287.35009766 447.71679688 C-288.34258006 442.04078179 -289.47629714 436.39612239 -290.625 430.75 C-290.8327002 429.71278809 -291.04040039 428.67557617 -291.25439453 427.60693359 C-292.1284566 423.24783815 -293.01590949 418.89470442 -293.98046875 414.5546875 C-296.53322358 402.75267554 -299.01451201 387.41980903 -293.3828125 376.13671875 C-288.56145196 368.68676334 -282.78877494 362.45296804 -274 360 C-270.99214974 359.84875316 -268.00860796 359.88556215 -265 360 C-265.27263672 358.08767578 -265.27263672 358.08767578 -265.55078125 356.13671875 C-266.81105917 347.16275869 -268.00406292 338.19573809 -268.92871094 329.18041992 C-270.59739926 312.9867888 -273.02065022 296.92442167 -275.48730469 280.83618164 C-280.11518572 250.57394569 -280.11518572 250.57394569 -280 239.5625 C-280.50573119 230.4107105 -285.22535 223.72790661 -289.80664062 216.06591797 C-294.32787307 208.23885803 -296.13152235 200.87062987 -296.8125 192 C-297.18372546 186.6869915 -297.18372546 186.6869915 -299.47265625 181.984375 C-301.60860408 180.59842117 -303.5850531 179.81127123 -306 179 C-308.12714005 178.1092601 -310.25206514 177.21321635 -312.375 176.3125 C-313.39335937 175.91675781 -314.41171875 175.52101563 -315.4609375 175.11328125 C-318 174 -318 174 -320 172 C-319.89453125 169.53125 -319.89453125 169.53125 -319 167 C-317.13671875 165.59375 -317.13671875 165.59375 -314.6875 164.5 C-313.79675781 164.09394531 -312.90601563 163.68789062 -311.98828125 163.26953125 C-310.50908203 162.64111328 -310.50908203 162.64111328 -309 162 C-307.90042969 161.52949219 -306.80085938 161.05898437 -305.66796875 160.57421875 C-302.78696483 159.3609846 -299.89861905 158.1704046 -297 157 C-303.97842678 152.40192642 -311.08628824 148.18518632 -318.42773438 144.19750977 C-328.31376445 138.7584786 -328.31376445 138.7584786 -330 134.4375 C-330 132 -330 132 -328.76318359 130.39038086 C-322.39257168 125.36675377 -309.21580571 127.88808707 -301.375 127.9375 C-299.97526203 127.94252803 -298.5755223 127.94708862 -297.17578125 127.95117188 C-293.78380831 127.96286833 -290.39192767 127.97925914 -287 128 C-287.24758057 127.30438965 -287.49516113 126.6087793 -287.75024414 125.89208984 C-288.86861396 122.72456258 -289.96569585 119.55005576 -291.0625 116.375 C-291.45244141 115.28058594 -291.84238281 114.18617188 -292.24414062 113.05859375 C-292.60830078 111.99511719 -292.97246094 110.93164062 -293.34765625 109.8359375 C-293.85824585 108.37486572 -293.85824585 108.37486572 -294.37915039 106.88427734 C-295.0851712 103.60432065 -294.74343575 101.24752953 -294 98 C-288.76800489 96.60373137 -285.47635015 97.61562905 -280.75 99.875 C-280.07195312 100.1851001 -279.39390625 100.4952002 -278.6953125 100.81469727 C-270.36465188 104.66857447 -262.17448328 108.82760749 -254 113 C-254.13277344 112.21238281 -254.26554688 111.42476563 -254.40234375 110.61328125 C-259.94621609 76.41932413 -259.94621609 76.41932413 -255 69 C-251.96832702 68.36105729 -249.9839171 68.36143319 -247.33203125 70.08251953 C-245.46824531 71.66855019 -243.73200832 73.33346646 -242 75.0625 C-241.35861084 75.68286133 -240.71722168 76.30322266 -240.05639648 76.94238281 C-235.28443494 81.60529427 -230.64511153 86.40141218 -226.0625 91.25 C-225.45341797 91.89332275 -224.84433594 92.53664551 -224.21679688 93.19946289 C-220 97.75357903 -220 97.75357903 -220 100 C-219.34 100 -218.68 100 -218 100 C-217.92523438 99.2265625 -217.85046875 98.453125 -217.7734375 97.65625 C-216.7095373 92.62690359 -214.70270081 88.18771164 -212.625 83.5 C-212.18599365 82.50202393 -211.7469873 81.50404785 -211.29467773 80.47583008 C-208.031835 73.14061899 -204.61340921 65.88745612 -201.0625 58.6875 C-200.60246582 57.74519531 -200.14243164 56.80289063 -199.66845703 55.83203125 C-199.23259277 54.96320313 -198.79672852 54.094375 -198.34765625 53.19921875 C-197.96617432 52.43440186 -197.58469238 51.66958496 -197.19165039 50.8815918 C-196 49 -196 49 -193 47 C-191 47.0625 -191 47.0625 -189 48 C-185.90533314 52.31557653 -184.43654962 57.12854116 -182.8125 62.125 C-182.40354492 63.34123047 -182.40354492 63.34123047 -181.98632812 64.58203125 C-180 70.60573308 -180 70.60573308 -180 74 C-179.07445312 73.27296875 -178.14890625 72.5459375 -177.1953125 71.796875 C-167.49788052 64.44917692 -157.52072644 59.09645604 -146.35205078 54.27441406 C-135.0369706 49.34908739 -125.41757948 42.78029929 -115.6875 35.25 C-114.78467285 34.55696777 -113.8818457 33.86393555 -112.95166016 33.14990234 C-106.99294718 28.56717397 -101.06097184 23.94973743 -95.17456055 19.27441406 C-92.82962891 17.41434915 -90.4930946 15.66206307 -88 14 C-85.3125 14.375 -85.3125 14.375 -83 15 C-81.01636492 21.23428168 -79.99681713 27.54189755 -79 34 C-77.67548828 32.64068359 -77.67548828 32.64068359 -76.32421875 31.25390625 C-69.96355412 24.77835423 -63.60897754 18.59033527 -56.46875 12.97265625 C-53.45504811 10.56455585 -50.64523511 7.9707964 -47.8515625 5.3125 C-45.55531099 3.68477741 -43.79591675 3.2185733 -41 3 C-39 5 -39 5 -38.734375 7.7578125 C-38.7642334 14.19229727 -39.0702474 19.84891359 -41 26 C-40.34 26 -39.68 26 -39 26 C-39 25.34 -39 24.68 -39 24 C-37.67749023 22.75415039 -37.67749023 22.75415039 -35.80859375 21.34765625 C-35.11773682 20.82333008 -34.42687988 20.29900391 -33.71508789 19.75878906 C-32.96348389 19.19901367 -32.21187988 18.63923828 -31.4375 18.0625 C-30.67622803 17.48854492 -29.91495605 16.91458984 -29.13061523 16.32324219 C-26.75981336 14.54053669 -24.38134452 12.76859229 -22 11 C-21.25911133 10.44876465 -20.51822266 9.8975293 -19.75488281 9.32958984 C-5.24845413 -1.44332488 -5.24845413 -1.44332488 0 0 Z " fill="#242323" transform="translate(537,82)"/>
<path d="M0 0 C5.60016713 10.17363695 6.49821026 22.92930962 8.03710938 34.27099609 C8.22080078 35.4977002 8.40449219 36.7244043 8.59375 37.98828125 C8.82094727 39.65177612 8.82094727 39.65177612 9.05273438 41.34887695 C9.7500504 44.23974401 9.7500504 44.23974401 12.58789062 45.37573242 C13.38388672 45.58174072 14.17988281 45.78774902 15 46 C17.82928932 43.44928686 19.67893264 40.53378728 21.6875 37.3125 C22.31011719 36.31863281 22.93273437 35.32476562 23.57421875 34.30078125 C24.04472656 33.54152344 24.51523437 32.78226562 25 32 C27.6590888 34.44565193 29.53287218 37.14136778 31.51171875 40.15625 C32.18783203 41.17976563 32.86394531 42.20328125 33.56054688 43.2578125 C34.61338867 44.86269531 34.61338867 44.86269531 35.6875 46.5 C38.43525141 50.68260176 41.20977107 54.84564465 44 59 C44.6904541 60.06734375 45.3809082 61.1346875 46.09228516 62.234375 C46.76952637 63.23984375 47.44676758 64.2453125 48.14453125 65.28125 C48.74241455 66.18939453 49.34029785 67.09753906 49.95629883 68.03320312 C51.92002893 70.33326573 51.92002893 70.33326573 55.2409668 70.29492188 C56.60668823 70.14893555 56.60668823 70.14893555 58 70 C59.30774665 62.01385781 60.38541771 54.0704358 61 46 C64.28741874 49.0997673 66.34881235 52.76136513 68.625 56.625 C73.16020861 64.1626005 77.89813306 71.55712908 82.79876709 78.86126709 C83.5565161 79.99332144 84.31016286 81.12813269 85.05963135 82.26568604 C86.12071053 83.87356892 87.19871893 85.47024056 88.27734375 87.06640625 C88.89859131 87.99396729 89.51983887 88.92152832 90.15991211 89.87719727 C92.1499938 92.17303915 93.03091852 92.69929958 96 93 C96.66 93 97.32 93 98 93 C98.11593506 92.3294458 98.23187012 91.6588916 98.35131836 90.96801758 C98.87937401 87.91606175 99.40842722 84.86427966 99.9375 81.8125 C100.11990234 80.75740234 100.30230469 79.70230469 100.49023438 78.61523438 C100.66748047 77.59365234 100.84472656 76.57207031 101.02734375 75.51953125 C101.18968506 74.58214111 101.35202637 73.64475098 101.51928711 72.67895508 C101.97993359 70.11182768 102.47916695 67.55552716 103 65 C103.66 65 104.32 65 105 65 C106.60855906 68.97740481 108.21103827 72.9572328 109.8125 76.9375 C110.26431641 78.05447266 110.71613281 79.17144531 111.18164062 80.32226562 C123.43792063 110.82877279 124.53461002 143.05673522 124.39111328 175.56396484 C124.37408234 179.45685287 124.38417612 183.34912245 124.40142727 187.24198914 C124.48060442 208.32586262 123.33562072 229.04796424 121 250 C120.87951294 251.0986438 120.75902588 252.1972876 120.6348877 253.32922363 C119.88767209 260.06205444 119.06323374 266.78275811 118.1875 273.5 C118.0596109 274.4861731 117.9317218 275.47234619 117.79995728 276.48840332 C109.85335501 337.36547677 92.97245128 394.24377753 42.4375 433.4375 C6.9629904 459.46664938 -36.05446101 470.76130685 -79.8125 464.875 C-96.28940662 462.33682309 -112.05670668 457.35138651 -127 450 C-127.63099609 449.69336426 -128.26199219 449.38672852 -128.91210938 449.07080078 C-142.65930208 442.31281537 -154.49520845 433.80429398 -165.57421875 423.25 C-167.98175948 420.89722606 -167.98175948 420.89722606 -171 419 C-171 418.34 -171 417.68 -171 417 C-171.99 416.67 -172.98 416.34 -174 416 C-176.58038087 413.57056063 -178.7470368 410.73062324 -181 408 C-181.44053711 407.47567383 -181.88107422 406.95134766 -182.33496094 406.41113281 C-206.56421904 377.51038163 -218.42732231 345.28335477 -224.375 308.375 C-224.52585052 307.44425659 -224.67670105 306.51351318 -224.8321228 305.55456543 C-228.1813164 284.77540892 -230.88653932 263.94042132 -233 243 C-233.13277344 241.68902344 -233.26554687 240.37804687 -233.40234375 239.02734375 C-235.12973138 220.88006924 -235.19721758 202.71473425 -235.25 184.5 C-235.2554483 183.35776978 -235.26089661 182.21553955 -235.26651001 181.03869629 C-235.43679112 133.10650338 -230.45116687 68.35525246 -194.9765625 31.921875 C-182.89947059 20.46306424 -168.52161537 11.05510951 -154 3 C-153.40106934 2.66162109 -152.80213867 2.32324219 -152.18505859 1.97460938 C-111.21591665 -20.89900817 -40.4970116 -30.44306601 0 0 Z " fill="#FEFAF6" transform="translate(531,252)"/>
<path d="M0 0 C0.66 0.33 1.32 0.66 2 1 C1.82460693 1.62527588 1.64921387 2.25055176 1.46850586 2.89477539 C-3.0011094 18.92428964 -6.92672945 35.01072142 -10.51953125 51.25390625 C-10.78459473 52.41937988 -11.0496582 53.58485352 -11.32275391 54.78564453 C-12.02451133 57.91065649 -12.02451133 57.91065649 -12.36083984 60.75732422 C-13.13757466 66.25499276 -13.13757466 66.25499276 -15.49731445 68.29345703 C-17.62370735 69.43293602 -19.71370569 70.22855946 -22 71 C-22.88429688 71.3182373 -23.76859375 71.63647461 -24.6796875 71.96435547 C-28.60419176 73.34129198 -32.55482739 74.63163675 -36.51171875 75.91210938 C-44.04531824 78.43491977 -51.61852957 81.21520508 -56.375 87.9375 C-57.06722656 88.87916016 -57.06722656 88.87916016 -57.7734375 89.83984375 C-61.48943664 96.38426262 -61.52208971 103.15208683 -61.9375 110.5 C-62.0996828 113.08737747 -62.26360263 115.67459373 -62.4296875 118.26171875 C-62.4730574 118.9479985 -62.51642731 119.63427826 -62.56111145 120.34135437 C-63.08245851 128.49431274 -63.71830392 136.63819617 -64.36257935 144.78222656 C-64.55935039 147.27263725 -64.75324041 149.76326139 -64.94702148 152.25390625 C-65.06992998 153.81121528 -65.19304859 155.36850774 -65.31640625 156.92578125 C-65.37051666 157.62371292 -65.42462708 158.32164459 -65.4803772 159.04072571 C-65.85581834 163.71624803 -66.39173134 168.35046323 -67 173 C-112.28674292 182.61661258 -164.20863124 182.66953296 -210 176 C-211.37718645 175.80939128 -212.75446916 175.61947702 -214.13183594 175.43017578 C-258.90311942 169.18939924 -303.45234326 157.20419456 -344.66552734 138.45898438 C-347.07894267 137.40300473 -349.38558386 136.51595282 -351.86962891 135.68164062 C-355.72052709 134.27561874 -358.86060757 132.70886929 -362 130 C-363.77344038 125.17081743 -363.88714883 120.6713767 -363.93688965 115.56427002 C-364.02708044 111.89968029 -364.40798094 108.2793404 -364.77520752 104.63363647 C-365.17852237 100.60186429 -365.51695742 96.5653617 -365.85986328 92.52807617 C-366.0355804 90.47982289 -366.21586484 88.43195593 -366.40087891 86.38452148 C-368.71516249 60.7691429 -369.38472265 35.04829835 -364.0625 9.75 C-363.90491211 8.98059082 -363.74732422 8.21118164 -363.58496094 7.41845703 C-363.09765625 5.296875 -363.09765625 5.296875 -362 2 C-358.80378888 0.93459629 -357.91791536 1.03883533 -354.75 1.75 C-353.40566895 2.03919312 -353.40566895 2.03919312 -352.03417969 2.33422852 C-350.53226074 2.6637854 -350.53226074 2.6637854 -349 3 C-329.78977426 7.02212295 -310.38979587 9.99043059 -291 13 C-289.96519501 13.16112274 -289.96519501 13.16112274 -288.90948486 13.32550049 C-266.92349408 16.73548358 -244.7904193 18.93251425 -222.65699768 21.13334656 C-217.41123273 21.65497988 -212.16761772 22.19079523 -206.92616272 22.75405884 C-178.72422459 25.77133299 -150.86528674 27.1580003 -123 21 C-121.85289551 20.74847168 -120.70579102 20.49694336 -119.52392578 20.23779297 C-114.76253675 19.18728959 -110.00220597 18.13686549 -105.25610352 17.01904297 C-96.79771804 15.04839385 -88.57388927 13.85076911 -79.875 13.875 C-78.94429687 13.87242187 -78.01359375 13.86984375 -77.0546875 13.8671875 C-74 14 -74 14 -70.39453125 14.49609375 C-47.0749721 17.57958048 -20.32689004 15.4660022 -1 1 C-0.67 0.67 -0.34 0.34 0 0 Z " fill="#FEFAF7" transform="translate(638,803)"/>
<path d="M0 0 C0.66 0 1.32 0 2 0 C2.03092239 0.92936371 2.03092239 0.92936371 2.06246948 1.87750244 C2.28193055 8.43376149 2.51077402 14.98964911 2.74462891 21.54541016 C2.83028001 23.97924897 2.9136828 26.41316814 2.99462891 28.84716797 C3.46540813 42.9531084 4.14503852 56.95299209 5.76708984 70.97717285 C5.97662364 72.7969761 6.16999447 74.61862298 6.36132812 76.44042969 C8.03760259 92.33380222 10.06173714 107.36088407 19.44921875 120.765625 C20.85330245 122.78863728 21.96259375 124.77187623 23 127 C9.94775842 136.88637873 -1.95150031 140.45335056 -18.203125 139.87890625 C-20.63159785 139.82204434 -23.0601535 139.76863849 -25.48876953 139.71826172 C-27.3887973 139.67762604 -27.3887973 139.67762604 -29.32720947 139.63616943 C-54.77345343 139.15829269 -78.23576535 141.44580549 -103.01660156 147.42631531 C-123.28897046 152.22443934 -143.62118212 151.55289254 -164.1953125 149.390625 C-165.88264704 149.22011259 -167.57005776 149.05035257 -169.25753784 148.88128662 C-172.77240633 148.52721175 -176.28657325 148.16705391 -179.80029297 147.80175781 C-184.19456756 147.34498506 -188.58985311 146.89910829 -192.98565197 146.45727253 C-250.47984214 140.67383527 -250.47984214 140.67383527 -276.4375 136.3125 C-277.76358685 136.09778153 -279.08975973 135.88359374 -280.41601562 135.66992188 C-289.7171332 134.1414334 -289.7171332 134.1414334 -292 133 C-290.17718987 127.23662511 -288.08083719 121.64075013 -285.78955078 116.04833984 C-281.10968187 104.55175622 -277.40619856 93.17952359 -275 81 C-274.85369141 80.26394531 -274.70738281 79.52789063 -274.55664062 78.76953125 C-269.82490664 53.66690493 -269.56460013 27.45725456 -268 2 C-263.90792689 5.38040822 -260.12379548 8.86715742 -256.4375 12.6875 C-224.02162942 45.34820344 -178.77421319 62.03074094 -133.25 62.3125 C-120.17552306 62.34510468 -107.76186422 60.7617682 -95 58 C-93.91887939 57.76772705 -93.91887939 57.76772705 -92.81591797 57.53076172 C-56.33522059 49.39088781 -26.30643212 28.87894163 -1 2 C-0.67 1.34 -0.34 0.68 0 0 Z " fill="#FEFAF6" transform="translate(609,667)"/>
<path d="M0 0 C1.80307617 0.00483398 1.80307617 0.00483398 3.64257812 0.00976562 C4.88845703 0.01814453 6.13433594 0.02652344 7.41796875 0.03515625 C8.68318359 0.03966797 9.94839844 0.04417969 11.25195312 0.04882812 C14.36983985 0.06059374 17.48763008 0.07703353 20.60546875 0.09765625 C19.14134695 19.94918481 12.9928845 36.41424966 5.40625 54.59765625 C5.13970108 55.23854187 4.87315216 55.87942749 4.598526 56.53973389 C2.7263692 60.9767558 2.7263692 60.9767558 1.60546875 62.09765625 C-6.58722293 62.03511662 -14.4963259 60.09418193 -22.39453125 58.09765625 C-21.84609217 52.65611229 -19.87831109 48.55731366 -17.39453125 43.78515625 C-17.02585937 43.05748047 -16.6571875 42.32980469 -16.27734375 41.58007812 C-13.56384673 36.26697173 -13.56384673 36.26697173 -12.39453125 35.09765625 C-12.48416187 33.40623969 -12.64030801 31.71806023 -12.83203125 30.03515625 C-12.98478516 28.65650391 -12.98478516 28.65650391 -13.140625 27.25 C-13.22441406 26.53972656 -13.30820312 25.82945312 -13.39453125 25.09765625 C-17.35453125 25.59265625 -17.35453125 25.59265625 -21.39453125 26.09765625 C-21.75804687 27.05478516 -21.75804687 27.05478516 -22.12890625 28.03125 C-23.14109523 30.48362145 -24.2116079 32.86262614 -25.34765625 35.2578125 C-30.85713673 46.95253253 -35.12949341 58.5914201 -38.39453125 71.09765625 C-38.85279297 72.82435547 -38.85279297 72.82435547 -39.3203125 74.5859375 C-41.09694155 82.04777952 -42.09815085 89.62193517 -43.08203125 97.22265625 C-43.21375732 98.19291748 -43.3454834 99.16317871 -43.48120117 100.1628418 C-45.89740363 120.19047551 -43.71960506 140.11742063 -41.83203125 160.09765625 C-41.45982383 164.05878269 -41.09174202 168.02021154 -40.73121643 171.98242188 C-40.50860552 174.4270429 -40.27965568 176.87109719 -40.04356384 179.31445312 C-39.94338455 180.41080078 -39.84320526 181.50714844 -39.73999023 182.63671875 C-39.64894516 183.59787598 -39.55790009 184.5590332 -39.46409607 185.54931641 C-39.39796451 187.97188699 -39.67158572 189.79864588 -40.39453125 192.09765625 C-73.29739258 174.50491593 -108.0856329 153.96631839 -134.39453125 127.09765625 C-134.02279785 126.62569824 -133.65106445 126.15374023 -133.26806641 125.66748047 C-124.89293346 115.01596315 -116.76415505 104.25997481 -109.03027344 93.13525391 C-101.66534012 82.54216784 -93.97982465 72.27913029 -85.99609375 62.14453125 C-84.12920312 59.75855396 -82.29770637 57.34752016 -80.47045898 54.93115234 C-62.1461005 30.7693737 -42.27908019 7.64624256 -11.39453125 1.09765625 C-10.27050903 0.83529175 -10.27050903 0.83529175 -9.1237793 0.56762695 C-6.03271009 0.03535142 -3.13643215 -0.01486461 0 0 Z " fill="#FDFAF6" transform="translate(303.39453125,734.90234375)"/>
<path d="M0 0 C1.18529297 -0.07734375 1.18529297 -0.07734375 2.39453125 -0.15625 C9.59260627 1.53504595 15.31321942 8.32454716 20.5 13.3125 C25.76713018 18.3063202 31.11388676 23.03919019 36.79296875 27.5625 C38.92256227 29.28562951 40.92769471 31.07832252 42.9375 32.9375 C55.45681507 43.94938733 70.64697969 51.73496827 86.1875 57.5 C83.47503527 60.65471441 80.02988055 62.45857077 76.4375 64.4375 C75.74430664 64.82228516 75.05111328 65.20707031 74.33691406 65.60351562 C29.56566338 90.27935514 -16.53969658 107.40753129 -66.32421875 118.84765625 C-67.05299225 119.01590912 -67.78176575 119.18416199 -68.53262329 119.35751343 C-73.57087896 120.5 -73.57087896 120.5 -75.8125 120.5 C-76.10474488 110.44790543 -75.20134859 100.50619094 -74.375 90.5 C-74.10216416 87.16692581 -73.83318753 83.83356388 -73.56640625 80.5 C-73.49910309 79.67870605 -73.43179993 78.85741211 -73.36245728 78.01123047 C-73.02494881 73.76190259 -72.75609442 69.52170117 -72.59716797 65.26171875 C-72.56332504 64.41029297 -72.52948212 63.55886719 -72.49461365 62.68164062 C-72.43509018 61.07266619 -72.38677948 59.46321908 -72.35218811 57.85351562 C-72.11369488 51.47613735 -70.67936221 46.80018276 -66.57421875 41.7421875 C-63.4463538 39.20273279 -60.39234829 37.88311347 -56.625 36.625 C-55.20163458 36.11380534 -53.77846505 35.60206502 -52.35546875 35.08984375 C-50.06343345 34.28361772 -47.76911379 33.48509758 -45.47119141 32.69580078 C-30.54050251 27.52308541 -21.53512676 21.31435947 -13.296875 7.55273438 C-11.56138672 4.72160955 -10.24202242 2.74303698 -7.3203125 1.08984375 C-4.82649697 0.50329212 -2.56081729 0.09928855 0 0 Z " fill="#FEFAF6" transform="translate(658.8125,853.5)"/>
<path d="M0 0 C12.69566928 0.41557019 24.36407589 2.24827117 34 11 C34.93585937 11.84175781 35.87171875 12.68351563 36.8359375 13.55078125 C40.70201769 17.05968933 44.53552666 20.60231852 48.3125 24.20703125 C53.81793759 29.33801812 59.79846546 33.13218137 66.25878906 36.96582031 C76.56050946 43.0844529 85.44636865 49.56619029 94 58 C94.62600098 58.59828613 95.25200195 59.19657227 95.89697266 59.81298828 C100.68597754 64.45989299 104.7395083 69.33323487 108.625 74.75 C109.21764648 75.5656543 109.81029297 76.38130859 110.42089844 77.22167969 C120.58748323 91.26839489 130.50490096 105.49042834 140 120 C140.47099121 120.71881348 140.94198242 121.43762695 141.42724609 122.17822266 C142.9133066 124.4499044 144.39512908 126.7242819 145.875 129 C146.32770264 129.69440186 146.78040527 130.38880371 147.24682617 131.10424805 C148.10270947 132.42665725 148.9514126 133.75374822 149.79199219 135.0859375 C150.60407589 136.37266673 151.4332668 137.64874174 152.27832031 138.9140625 C153.4453125 140.75 153.4453125 140.75 155 144 C152.64571734 151.08519605 143.2869256 155.38840119 137.18505859 158.90771484 C133.46602278 160.76681721 130.81972156 160.97235266 126.82421875 160.01171875 C125.42623047 159.51091797 125.42623047 159.51091797 124 159 C122.76894531 158.61457031 121.53789063 158.22914063 120.26953125 157.83203125 C101.18508996 151.51447092 86.00293125 139.763453 71.44140625 126.26171875 C68.73156802 123.75132462 65.95568001 121.3312205 63.15625 118.921875 C61.45610959 117.40653246 59.79790524 115.84413966 58.15625 114.265625 C49.98329619 106.40852153 44.16799593 101.90634812 32.5 101.5 C26.15795102 101.65934796 21.43417859 102.7706194 16 106 C15.01 106.495 15.01 106.495 14 107 C16.30329976 94.4048307 19.52776932 82.13502313 22.89233398 69.78857422 C23.57275693 67.28490276 24.24567411 64.77930166 24.91796875 62.2734375 C25.12729538 61.51509613 25.33662201 60.75675476 25.55229187 59.97543335 C27.00683261 54.55587384 27.00683261 54.55587384 27 49 C24.31613432 46.1534758 22.45639112 45.10142025 18.625 44.25 C12.47121006 42.12800347 9.46998538 37.86845795 6.5546875 32.1796875 C2.45204013 22.37755397 -0.39705298 10.69953293 0 0 Z " fill="#FDFAF6" transform="translate(626,742)"/>
<path d="M0 0 C5.01026064 4.11954764 8.28836455 8.32053811 9.1484375 14.87109375 C9.3655796 30.87446632 4.99287857 46.75575316 1.67138672 62.31591797 C0.60769457 67.33233259 -0.38960428 72.34743751 -1.25390625 77.40234375 C-1.42277344 78.38525391 -1.59164062 79.36816406 -1.765625 80.38085938 C-2.07703324 82.22545092 -2.37864082 84.07173833 -2.66796875 85.91992188 C-3.9637205 93.5943061 -5.94182489 101.25623633 -12.25 106.3125 C-12.92160156 106.869375 -13.59320312 107.42625 -14.28515625 108 C-18.3960576 110.83626869 -22.59455574 110.42927579 -27.375 110.375 C-28.12458984 110.37048828 -28.87417969 110.36597656 -29.64648438 110.36132812 C-31.49352383 110.34956354 -33.34052213 110.33162865 -35.1875 110.3125 C-34.4144423 98.81291791 -32.78942067 87.45291877 -31.10058594 76.05932617 C-30.09816766 69.23969099 -29.10905091 62.50308501 -28.7890625 55.609375 C-28.10160311 43.24038603 -28.10160311 43.24038603 -24.56005859 39.67333984 C-20.46235596 36.69603193 -16.02138633 34.81315491 -11.28125 33.09423828 C-8.44244906 32.03432217 -5.80279747 30.66199953 -3.125 29.25 C-1.81359955 28.60193688 -0.50162007 27.95503045 0.8125 27.3125 C1.06265873 23.89607241 1.06265873 23.89607241 0.8125 20.3125 C-1.9624088 18.03545228 -1.9624088 18.03545228 -4.890625 18.43359375 C-8.96951936 19.52097673 -12.28555808 21.29791319 -15.9375 23.375 C-22.95096154 27.3125 -22.95096154 27.3125 -25.1875 27.3125 C-24.9685285 22.85206832 -24.70711499 18.39513449 -24.4375 13.9375 C-24.375625 12.66648437 -24.31375 11.39546875 -24.25 10.0859375 C-24.13398437 8.26835937 -24.13398437 8.26835937 -24.015625 6.4140625 C-23.9527832 5.29338379 -23.88994141 4.17270508 -23.82519531 3.01806641 C-23.1875 0.3125 -23.1875 0.3125 -21.34985352 -1.04785156 C-15.1837653 -2.87184966 -5.78852019 -3.12175652 0 0 Z " fill="#FCF8F5" transform="translate(690.1875,454.6875)"/>
<path d="M0 0 C1.38638672 -0.02126953 1.38638672 -0.02126953 2.80078125 -0.04296875 C5.6875 0.1875 5.6875 0.1875 11.6875 2.1875 C12.3475 11.0975 13.0075 20.0075 13.6875 29.1875 C8.89526327 27.27060531 4.43862487 25.00597948 -0.05273438 22.49023438 C-4.21365831 20.30290715 -6.79239878 19.86043601 -11.3125 21.1875 C-12.63218178 22.29278442 -12.63218178 22.29278442 -12.5625 25.0625 C-12.6169145 28.12302103 -12.6169145 28.12302103 -11.01635742 29.76611328 C-8.21510842 32.10296264 -4.89900659 33.50516721 -1.625 35.0625 C0.4238702 36.04146914 2.46014245 37.02777058 4.47331238 38.07841492 C6.62869237 39.20734464 6.62869237 39.20734464 8.74861145 39.95710754 C11.26433887 41.09484166 12.81035877 42.14136268 14.6875 44.1875 C16.39064533 49.12632641 16.88217627 54.16759282 17.4375 59.33203125 C17.62469466 60.82743978 17.81509143 62.32245064 18.00854492 63.81706238 C18.50733245 67.7378201 18.96262487 71.66244074 19.40887451 75.58947754 C19.87259236 79.60132259 20.37750014 83.60795701 20.87890625 87.61523438 C21.85535771 95.46815408 22.78589336 103.32563728 23.6875 111.1875 C17.34066526 113.30311158 9.14976303 113.47456897 2.83984375 111.12890625 C-3.12662787 107.45340036 -6.02880347 102.91612809 -7.84106445 96.24047852 C-9.27475261 89.85017329 -10.1735487 83.42270648 -11.0625 76.9375 C-13.01351376 63.18079375 -15.75156672 49.67294694 -18.71166992 36.10229492 C-20.75836219 26.17321772 -21.99381738 17.52150608 -16.87890625 8.35546875 C-12.63826021 2.48624543 -7.13731317 0.04935901 0 0 Z " fill="#FCF9F5" transform="translate(272.3125,452.8125)"/>
<path d="M0 0 C1.09848518 0.02491013 1.09848518 0.02491013 2.21916199 0.05032349 C4.56034002 0.11127415 6.89846895 0.20469914 9.23828125 0.3046875 C10.00110413 0.33284546 10.763927 0.36100342 11.54986572 0.39001465 C17.05365286 0.59441479 22.55179014 0.87397305 28.05078125 1.1796875 C29.2922995 1.24737839 29.2922995 1.24737839 30.55889893 1.31643677 C40.08459671 1.83946177 49.61228605 2.36782259 59.11328125 3.2421875 C59.85296143 3.3045459 60.5926416 3.3669043 61.35473633 3.43115234 C75.16007758 4.85889678 84.28198465 13.26663572 93.23828125 23.3046875 C95.87092476 27.19263122 96.85762668 29.5563725 96.23828125 34.3046875 C95.17578125 36.1796875 95.17578125 36.1796875 93.23828125 37.3046875 C88.58283798 37.99805139 85.32468723 37.07628107 80.92578125 35.4921875 C75.75372953 33.66446997 70.69490818 32.51097349 65.30078125 31.6171875 C64.24733521 31.43869263 64.24733521 31.43869263 63.17260742 31.2565918 C52.2782338 29.54007513 41.41059685 29.17622266 30.40234375 29.41796875 C28.01564458 29.45005898 25.62892436 29.48061362 23.2421875 29.50976562 C19.53538505 29.55931126 15.82971879 29.61795218 12.12353516 29.70239258 C8.50795225 29.78115774 4.89358932 29.8215461 1.27734375 29.85546875 C-0.37906631 29.9066259 -0.37906631 29.9066259 -2.06893921 29.95881653 C-7.32395193 29.97744012 -10.81984654 29.84477688 -14.95166016 26.39526367 C-18.30454362 23.0471315 -18.95149556 20.78275981 -19.07421875 16.0546875 C-19.00765539 10.96259022 -18.37929522 8.10778071 -14.76171875 4.3046875 C-9.72272687 0.8982311 -6.13060543 -0.2726369 0 0 Z " fill="#232323" transform="translate(529.76171875,354.6953125)"/>
<path d="M0 0 C1.99063144 -0.01165072 3.98122864 -0.03230196 5.97167969 -0.06152344 C8.88652187 -0.10409845 11.80046231 -0.12033684 14.71557617 -0.13061523 C15.59999893 -0.14812332 16.48442169 -0.16563141 17.39564514 -0.18367004 C22.90590353 -0.16429532 26.02081564 0.63086348 30.39916992 4.29516602 C33.99922282 8.25522421 33.89965428 12.50721857 33.75463867 17.63110352 C33.2545719 21.3788567 31.94499622 23.53718753 29.39916992 26.29516602 C26.19215806 28.32681686 23.73032089 28.5277192 19.9699707 28.47460938 C18.88007843 28.46477524 17.79018616 28.4549411 16.66726685 28.44480896 C15.48824799 28.42507523 14.30922913 28.40534149 13.09448242 28.38500977 C10.56453676 28.36454665 8.03458873 28.3443744 5.50463867 28.32446289 C1.54276301 28.28143602 -2.41888422 28.23345288 -6.38061523 28.17871094 C-39.7420816 27.31020179 -39.7420816 27.31020179 -71.60083008 36.29516602 C-75.20524341 36.68695007 -76.98481637 36.70584182 -80.03833008 34.67016602 C-81.60083008 32.29516602 -81.60083008 32.29516602 -81.44848633 29.48266602 C-78.96070866 20.12770482 -68.57048798 10.91805623 -60.44458008 5.98657227 C-52.4295372 2.23981421 -43.30247411 1.95963788 -34.60083008 1.29516602 C-33.05093384 1.16597778 -33.05093384 1.16597778 -31.46972656 1.03417969 C-20.98267462 0.23371313 -10.51440693 0.04285883 0 0 Z " fill="#232322" transform="translate(407.600830078125,355.704833984375)"/>
<path d="M0 0 C11.2530912 2.64890234 22.22852562 5.82398257 33.1875 9.5 C34.33599426 9.88218689 34.33599426 9.88218689 35.50769043 10.27209473 C50.99078801 15.4416751 66.03980795 21.48068231 81 28 C77.16675593 36.00968636 69.52882161 41.31708169 62.734375 46.76953125 C60.19159061 48.8437168 57.74488138 50.98577548 55.3125 53.1875 C44.37913327 63 44.37913327 63 41 63 C39.43707711 60.61299049 37.99119808 58.21676345 36.5625 55.75 C31.48285356 47.20867508 26.03041188 38.95946769 20.4375 30.75 C20.02446625 30.14306305 19.6114325 29.5361261 19.18588257 28.91079712 C13.78149438 20.9781286 8.3089065 13.10119654 2.6171875 5.37109375 C1 3 1 3 0 0 Z " fill="#FDF9F6" transform="translate(749,817)"/>
<path d="M0 0 C4.67575215 1.05866087 5.6781362 2.7984543 8.3125 6.75 C9.38735229 9.97455687 9.50063714 12.46669892 9.59375 15.859375 C9.63048828 17.08245361 9.66722656 18.30553223 9.70507812 19.56567383 C9.74052734 20.86400146 9.77597656 22.1623291 9.8125 23.5 C10.35405637 42.67740144 10.35405637 42.67740144 12.3125 61.75 C6.88078561 59.15092167 1.92384349 56.33144758 -3 52.875 C-3.67297119 52.40739258 -4.34594238 51.93978516 -5.03930664 51.45800781 C-16.82597364 43.21392865 -28.36943917 34.62494043 -39.6875 25.75 C-37.17759312 22.98280251 -34.36172819 21.15076562 -31.20703125 19.16796875 C-30.12486328 18.48283203 -29.04269531 17.79769531 -27.92773438 17.09179688 C-26.78541047 16.37329359 -25.64283065 15.655197 -24.5 14.9375 C-14.65476494 8.77628551 -14.65476494 8.77628551 -5.34716797 1.84790039 C-3.6875 0.75 -3.6875 0.75 0 0 Z " fill="#222221" transform="translate(220.6875,847.25)"/>
<path d="M0 0 C0.75667969 -0.00515625 1.51335937 -0.0103125 2.29296875 -0.015625 C4.8125 0.25 4.8125 0.25 8.0546875 1.25 C12.41355878 2.40994911 16.26872416 2.54538001 20.75 2.5 C21.50990234 2.50773438 22.26980469 2.51546875 23.05273438 2.5234375 C26.82284591 2.51055924 30.17931687 2.25373256 33.81640625 1.234375 C41.02300079 -0.76949935 48.07166703 0.22163365 55.2421875 1.89453125 C55.99919952 2.06498459 56.75621155 2.23543793 57.53616333 2.41105652 C59.11863871 2.77026026 60.7000127 3.13434914 62.28027344 3.50317383 C64.69920907 4.06522064 67.12246083 4.60471626 69.546875 5.14257812 C71.09145237 5.49605906 72.63573501 5.85083084 74.1796875 6.20703125 C74.90155243 6.36653763 75.62341736 6.52604401 76.36715698 6.69038391 C82.77816646 8.21748554 82.77816646 8.21748554 84.8125 11.25 C85.20226435 14.36811483 85.31672245 16.36019567 83.75 19.125 C77.91881051 22.51085196 69.32499239 19.21799537 63.25 17.8125 C48.03329865 14.0175416 48.03329865 14.0175416 32.625 15.25 C24.26199092 17.30047508 15.5452617 16.8970973 7.26806641 14.73144531 C-2.69278733 12.77849208 -12.39174993 14.83774549 -22.0625 17.25 C-39.86009752 21.60139499 -39.86009752 21.60139499 -44.125 19.125 C-45.69172245 16.36019567 -45.57726435 14.36811483 -45.1875 11.25 C-42.82196173 7.99869408 -40.16500091 7.52558369 -36.33984375 6.71484375 C-35.17646484 6.46283203 -34.01308594 6.21082031 -32.81445312 5.95117188 C-31.59693359 5.69916016 -30.37941406 5.44714844 -29.125 5.1875 C-27.93455078 4.93162109 -26.74410156 4.67574219 -25.51757812 4.41210938 C-22.07717623 3.67636647 -18.63313534 2.96077263 -15.1875 2.25 C-14.22432861 2.04552246 -13.26115723 1.84104492 -12.26879883 1.63037109 C-8.15897469 0.77290105 -4.21779153 -0.02903815 0 0 Z " fill="#232222" transform="translate(455.1875,580.75)"/>
<path d="M0 0 C2 3 2 3 1.75 5.5625 C1 8 1 8 -1 10 C-2.99609375 10.046875 -2.99609375 10.046875 -5.4375 9.75 C-6.32050781 9.64300781 -7.20351563 9.53601563 -8.11328125 9.42578125 C-12.76583744 8.73954495 -17.38515952 7.90366648 -22 7 C-21.95359375 7.72445313 -21.9071875 8.44890625 -21.859375 9.1953125 C-21.63002148 15.33871035 -21.61994629 19.27415257 -26 24 C-30.35183072 27.93737065 -33.91732898 28.63423042 -39.6015625 28.38671875 C-44.44258326 27.60616328 -47.13138808 24.96251592 -50.3125 21.4375 C-52.70829821 17.97690259 -53.12197814 15.41649175 -53.0625 11.3125 C-53.05347656 10.50425781 -53.04445313 9.69601562 -53.03515625 8.86328125 C-53.02355469 8.24839844 -53.01195312 7.63351562 -53 7 C-53.76183594 7.13277344 -54.52367187 7.26554687 -55.30859375 7.40234375 C-58.53609718 7.95436369 -61.76771595 8.47678855 -65 9 C-65.88945312 9.16371094 -66.77890625 9.32742188 -67.6953125 9.49609375 C-70.0625 9.875 -70.0625 9.875 -74 10 C-76.125 8.375 -76.125 8.375 -77 6 C-76.9375 3.4375 -76.9375 3.4375 -76 1 C-73.18604812 -1.49919216 -70.61178042 -2.64680947 -67 -3.625 C-66.154375 -3.86476563 -65.30875 -4.10453125 -64.4375 -4.3515625 C-46.56995507 -7.7220312 -15.87102333 -10.64381278 0 0 Z " fill="#232222" transform="translate(429,415)"/>
<path d="M0 0 C1.77734375 1.9375 1.77734375 1.9375 3 4 C2.75925978 7.37036311 2.41201979 8.58798021 0 11 C-5.1979039 11.36339902 -9.89731499 10.59805797 -14.9375 9.5 C-15.62134766 9.35691406 -16.30519531 9.21382813 -17.00976562 9.06640625 C-18.67449514 8.71716229 -20.33744875 8.35947054 -22 8 C-21.95359375 8.72445313 -21.9071875 9.44890625 -21.859375 10.1953125 C-21.6292962 16.35813759 -21.68164139 20.20182377 -26 25 C-30.24527151 28.73069314 -34.15360732 29.36788263 -39.65234375 29.26953125 C-43.47557799 28.83059088 -46.16760263 27.60492504 -49 25 C-53.05140168 19.69002679 -53.54173555 14.50082658 -53 8 C-53.85722656 8.2165625 -54.71445312 8.433125 -55.59765625 8.65625 C-67.65913105 11.59342988 -67.65913105 11.59342988 -73 11 C-75 9 -75 9 -75.3125 6.0625 C-74.95879467 2.5961878 -74.58748413 2.12669929 -72 0 C-54.52505943 -9.03876236 -17.41451382 -8.70725691 0 0 Z " fill="#222221" transform="translate(598,414)"/>
<path d="M0 0 C-0.40202637 0.53254395 -0.80405273 1.06508789 -1.21826172 1.61376953 C-9.28699235 12.31145605 -17.28884627 23.04108976 -25 34 C-31.88377963 28.23683566 -38.42546859 22.10986528 -45 16 C-42.1620403 13.70558381 -39.50171265 12.23509318 -36.10546875 10.9140625 C-35.15639648 10.54265137 -34.20732422 10.17124023 -33.22949219 9.78857422 C-32.22563477 9.40459473 -31.22177734 9.02061523 -30.1875 8.625 C-29.16172852 8.22941895 -28.13595703 7.83383789 -27.07910156 7.42626953 C-4.10232972 -1.36744324 -4.10232972 -1.36744324 0 0 Z " fill="#FBF9F5" transform="translate(186,821)"/>
<path d="M0 0 C0.66 12.54 1.32 25.08 2 38 C-5.03687878 33.52198623 -11.93493134 29.0545743 -18.6875 24.1875 C-19.49638672 23.61580078 -20.30527344 23.04410156 -21.13867188 22.45507812 C-21.90115234 21.90658203 -22.66363281 21.35808594 -23.44921875 20.79296875 C-24.47535278 20.05856567 -24.47535278 20.05856567 -25.5222168 19.30932617 C-26.00988525 18.87724854 -26.49755371 18.4451709 -27 18 C-27 17.34 -27 16.68 -27 16 C-25.2434082 14.73486328 -25.2434082 14.73486328 -22.80078125 13.3203125 C-21.92099609 12.80339844 -21.04121094 12.28648437 -20.13476562 11.75390625 C-19.20341797 11.21636719 -18.27207031 10.67882812 -17.3125 10.125 C-12.84365116 7.52896202 -4.77121171 0 0 0 Z " fill="#FCF9F6" transform="translate(218,863)"/>
<path d="M0 0 C1.27787132 -0.00786278 1.27787132 -0.00786278 2.58155823 -0.0158844 C4.38289297 -0.02230629 6.18426964 -0.02096542 7.9855957 -0.01245117 C10.74050714 -0.00394761 13.49334072 -0.03268794 16.24804688 -0.06445312 C17.9986973 -0.06606541 19.74935139 -0.06548708 21.5 -0.0625 C22.32302109 -0.07373398 23.14604218 -0.08496796 23.9940033 -0.09654236 C27.77275799 -0.05055481 29.72081674 0.01450467 32.87524414 2.23413086 C34.31640625 4.43359375 34.31640625 4.43359375 34.19140625 8.12109375 C33.90265625 9.21421875 33.61390625 10.30734375 33.31640625 11.43359375 C29.8974195 13.14308713 25.98479012 12.59680624 22.22265625 12.6015625 C20.86895935 12.6065551 20.86895935 12.6065551 19.48791504 12.61164856 C17.57804881 12.61671569 15.66817372 12.61905695 13.75830078 12.61889648 C10.82830324 12.62108486 7.89868097 12.63924793 4.96875 12.65820312 C3.11588671 12.66113664 1.26302162 12.66312172 -0.58984375 12.6640625 C-1.91018616 12.67484077 -1.91018616 12.67484077 -3.25720215 12.68583679 C-9.45476827 12.66241923 -9.45476827 12.66241923 -11.68359375 10.43359375 C-12.25142087 4.18749548 -12.25142087 4.18749548 -10.40513611 1.7361908 C-7.38690725 -0.54753808 -3.64145703 -0.01295687 0 0 Z " fill="#201F1F" transform="translate(463.68359375,618.56640625)"/>
<path d="M0 0 C0.82886719 0.03222656 1.65773438 0.06445312 2.51171875 0.09765625 C6.1643006 0.33311194 8.47783573 0.67675545 11.625 2.625 C13.61223927 6.0575042 12.97311023 8.24657484 12 12 C9.39994603 14.60005397 7.57014239 14.26105409 4.02539062 14.2734375 C3.25388672 14.26570312 2.48238281 14.25796875 1.6875 14.25 C0.92759766 14.25773438 0.16769531 14.26546875 -0.61523438 14.2734375 C-5.92690615 14.25497817 -10.07262897 13.92737103 -14 10 C-14.44935048 6.55497967 -14.37778761 4.65254224 -12.625 1.625 C-8.52547712 -0.91279988 -4.69427696 -0.33677829 0 0 Z " fill="#232222" transform="translate(453,525)"/>
<path d="M0 0 C1.05574219 -0.03867187 2.11148437 -0.07734375 3.19921875 -0.1171875 C4.194375 -0.15457031 5.18953125 -0.19195313 6.21484375 -0.23046875 C9.70675096 0.31327109 10.86533821 1.38530653 12.94921875 4.1953125 C12.88671875 7.8203125 12.88671875 7.8203125 11.94921875 11.1953125 C5.93140878 15.20718581 -4.0073858 15.16522269 -11.05078125 14.1953125 C-12.84765625 12.8984375 -12.84765625 12.8984375 -14.05078125 11.1953125 C-14.41008965 7.84176743 -14.66594811 5.34875036 -13.05078125 2.3203125 C-9.04047985 0.06451796 -4.48538817 0.28715673 0 0 Z " fill="#232222" transform="translate(501.05078125,524.8046875)"/>
<path d="M0 0 C1.83319859 3.13555517 2.24756341 5.41232584 2.23046875 9.02734375 C2.22853516 9.98447266 2.22660156 10.94160156 2.22460938 11.92773438 C2.21236328 12.92095703 2.20011719 13.91417969 2.1875 14.9375 C2.18685547 15.92685547 2.18621094 16.91621094 2.18554688 17.93554688 C2.1582447 22.44647255 1.99276058 26.58382464 1 31 C0.67 31 0.34 31 0 31 C-1.1171145 25.61834524 -1.14899997 20.40549251 -1.125 14.9375 C-1.12886719 14.05255859 -1.13273437 13.16761719 -1.13671875 12.25585938 C-1.13040231 8.04595477 -1.0746695 4.10250819 0 0 Z " fill="#2C2A2A" transform="translate(259,840)"/>
<path d="M0 0 C4.98975076 -0.09375315 9.96080644 -0.09676756 14.9375 0.3125 C15.64777344 0.37050781 16.35804688 0.42851563 17.08984375 0.48828125 C19.52854832 1.14159474 20.52045174 1.96444316 22 4 C21.6875 7.6875 21.6875 7.6875 21 11 C20.67 11 20.34 11 20 11 C19.896875 10.05125 19.79375 9.1025 19.6875 8.125 C19.31460705 4.70892499 19.31460705 4.70892499 16 3 C13.23344676 2.85754103 10.57346694 2.81230555 7.8125 2.875 C6.68811523 2.88853516 6.68811523 2.88853516 5.54101562 2.90234375 C3.69387346 2.92587422 1.84689588 2.96174439 0 3 C0 2.01 0 1.02 0 0 Z " fill="#2E2C2C" transform="translate(443,525)"/>
<path d="M0 0 C1.10844919 3.32534757 0.84454356 5.62182575 0 9 C-0.33 9 -0.66 9 -1 9 C-1 6.69 -1 4.38 -1 2 C-1.76183594 2.13277344 -2.52367187 2.26554687 -3.30859375 2.40234375 C-9.5309155 3.46658605 -15.71867797 4.3718678 -22 5 C-22 4.01 -22 3.02 -22 2 C-20.948125 2.29197266 -20.948125 2.29197266 -19.875 2.58984375 C-16.48369251 3.073658 -14.28044963 2.50395557 -11 1.5625 C-7.19017531 0.47883813 -3.967794 -0.18234347 0 0 Z " fill="#090908" transform="translate(377,420)"/>
<path d="M0 0 C1.46953125 0.01450195 1.46953125 0.01450195 2.96875 0.02929688 C4.49242187 0.06700195 4.49242187 0.06700195 6.046875 0.10546875 C7.59375 0.12577148 7.59375 0.12577148 9.171875 0.14648438 C11.71407292 0.18179268 14.25520723 0.23110839 16.796875 0.29296875 C16.796875 0.62296875 16.796875 0.95296875 16.796875 1.29296875 C14.486875 1.29296875 12.176875 1.29296875 9.796875 1.29296875 C9.796875 1.95296875 9.796875 2.61296875 9.796875 3.29296875 C3.526875 3.29296875 -2.743125 3.29296875 -9.203125 3.29296875 C-5.13411969 0.24121477 -4.66634989 -0.08138982 0 0 Z " fill="#302E2D" transform="translate(556.203125,408.70703125)"/>
<path d="M0 0 C0 0.33 0 0.66 0 1 C-5.95414663 2.44300495 -11.89340374 3.28647754 -18 3.75 C-19.27875 3.84796875 -20.5575 3.9459375 -21.875 4.046875 C-25 4 -25 4 -27 2 C-17.91214765 0.60950893 -9.21627045 -0.30892527 0 0 Z " fill="#E4E3E1" transform="translate(564,817)"/>
<path d="M0 0 C0.886875 -0.01417969 1.77375 -0.02835938 2.6875 -0.04296875 C5 0.1875 5 0.1875 7 2.1875 C4.35541621 3.50979189 2.32238699 3.28427194 -0.625 3.25 C-1.62789063 3.24097656 -2.63078125 3.23195313 -3.6640625 3.22265625 C-4.43492187 3.21105469 -5.20578125 3.19945312 -6 3.1875 C-6.33 2.5275 -6.66 1.8675 -7 1.1875 C-4.52224905 -0.05137548 -2.76346293 0.02008331 0 0 Z " fill="#2C2B2A" transform="translate(455,580.8125)"/>
<path d="M0 0 C2.42130331 3.63195496 2.21022785 5.38349348 2.125 9.6875 C2.10695313 10.86699219 2.08890625 12.04648437 2.0703125 13.26171875 C2.03550781 14.61716797 2.03550781 14.61716797 2 16 C-0.25090196 12.62364705 -0.39443591 10.86259337 -0.6875 6.875 C-0.81705078 5.26238281 -0.81705078 5.26238281 -0.94921875 3.6171875 C-0.96597656 2.75351562 -0.98273437 1.88984375 -1 1 C-0.67 0.67 -0.34 0.34 0 0 Z " fill="#F1F0EE" transform="translate(697,464)"/>
<path d="M0 0 C2.47717167 3.71575751 2.30345742 5.59986738 2 10 C1 12.9375 1 12.9375 0 15 C-0.33 15 -0.66 15 -1 15 C-1.18451025 4.44191344 -1.18451025 4.44191344 0 0 Z " fill="#191818" transform="translate(650,514)"/>
<path d="M0 0 C1.485 0.99 1.485 0.99 3 2 C3.22137393 4.62697064 3.28162025 7.00893964 3.1875 9.625 C3.16719727 10.68460937 3.16719727 10.68460937 3.14648438 11.765625 C3.1111104 13.51074128 3.05730221 15.25546608 3 17 C2.67 17 2.34 17 2 17 C1.67 15.02 1.34 13.04 1 11 C0.67 11 0.34 11 0 11 C0 7.37 0 3.74 0 0 Z " fill="#2F2D2C" transform="translate(284,454)"/>
<path d="M0 0 C3.57692308 4.76923077 3.57692308 4.76923077 3 9 C2.1156537 11.72927564 1.08274555 14.33825051 0 17 C-0.33 17 -0.66 17 -1 17 C-0.67 11.39 -0.34 5.78 0 0 Z " fill="#DFDDDA" transform="translate(622,101)"/>
<path d="M0 0 C5.61 0 11.22 0 17 0 C17 0.33 17 0.66 17 1 C16.02417969 1.01417969 15.04835938 1.02835938 14.04296875 1.04296875 C12.13451172 1.11451172 12.13451172 1.11451172 10.1875 1.1875 C8.29064453 1.23970703 8.29064453 1.23970703 6.35546875 1.29296875 C2.8234665 1.65620394 2.8234665 1.65620394 1.05078125 4.55078125 C0.70402344 5.35902344 0.35726562 6.16726563 0 7 C-1 5 -1 5 0 0 Z " fill="#B9B6B4" transform="translate(652,576)"/>
<path d="M0 0 C0.99 0.33 1.98 0.66 3 1 C5.00875442 0.72428861 7.01178687 0.39764263 9 0 C6.76504572 2.23495428 4.97585464 3.0024791 2.0625 4.1875 C1.18722656 4.55230469 0.31195313 4.91710937 -0.58984375 5.29296875 C-3 6 -3 6 -6 5 C-4.68 4.67 -3.36 4.34 -2 4 C-2 3.34 -2 2.68 -2 2 C-1.34 2 -0.68 2 0 2 C0 1.34 0 0.68 0 0 Z " fill="#131212" transform="translate(394,243)"/>
<path d="M0 0 C1.65 0.99 3.3 1.98 5 3 C4.01 4.485 4.01 4.485 3 6 C2.34 6 1.68 6 1 6 C1 6.66 1 7.32 1 8 C0.34 8 -0.32 8 -1 8 C-0.67 5.36 -0.34 2.72 0 0 Z " fill="#ECE9E9" transform="translate(497,100)"/>
<path d="M0 0 C0.33 0 0.66 0 1 0 C1 3.63 1 7.26 1 11 C0.01 11 -0.98 11 -2 11 C-2.25 3.375 -2.25 3.375 0 0 Z " fill="#2E2C2B" transform="translate(573,965)"/>
<path d="M0 0 C2.875 -0.125 2.875 -0.125 6 0 C6.66 0.66 7.32 1.32 8 2 C6.02 2 4.04 2 2 2 C2 3.65 2 5.3 2 7 C0 5 0 5 -0.125 2.375 C-0.08375 1.59125 -0.0425 0.8075 0 0 Z " fill="#E7E5E4" transform="translate(626,742)"/>
<path d="M0 0 C1.2380014 3.57644848 0.74926071 6.33694766 0 10 C-0.66 9.67 -1.32 9.34 -2 9 C-2.125 5.625 -2.125 5.625 -2 2 C-1.34 1.34 -0.68 0.68 0 0 Z " fill="#F0EFED" transform="translate(625,857)"/>
<path d="M0 0 C2.64 0 5.28 0 8 0 C6.1875 1.5625 6.1875 1.5625 4 3 C3.01 2.67 2.02 2.34 1 2 C1 3.98 1 5.96 1 8 C0.67 8 0.34 8 0 8 C0 5.36 0 2.72 0 0 Z " fill="#C2BFBE" transform="translate(407,422)"/>
<path d="M0 0 C0 0.99 0 1.98 0 3 C-6.0546875 3.1953125 -6.0546875 3.1953125 -8 3 C-8.66 2.34 -9.32 1.68 -10 1 C-6.59437148 0.22157062 -3.49234244 -0.09978121 0 0 Z " fill="#2D2D2B" transform="translate(373,410)"/>
<path d="M0 0 C2 2 2 2 2.3125 4.875 C1.96732652 8.32673483 1.14126508 9.38980351 -1 12 C-1.02698189 10.37509046 -1.04638757 8.75005367 -1.0625 7.125 C-1.07410156 6.22007812 -1.08570313 5.31515625 -1.09765625 4.3828125 C-1 2 -1 2 0 0 Z " fill="#2D2D2C" transform="translate(295,402)"/>
<path d="M0 0 C1.65 0 3.3 0 5 0 C6.10844919 3.32534757 5.84454356 5.62182575 5 9 C4.67 9 4.34 9 4 9 C4 6.69 4 4.38 4 2 C2.68 1.67 1.36 1.34 0 1 C0 0.67 0 0.34 0 0 Z " fill="#161615" transform="translate(372,420)"/>
<path d="M0 0 C2.97 0 5.94 0 9 0 C7.515 1.485 7.515 1.485 6 3 C2.3125 2.6875 2.3125 2.6875 -1 2 C-0.67 1.34 -0.34 0.68 0 0 Z " fill="#2C2B2B" transform="translate(444,232)"/>
<path d="M0 0 C0.33 0 0.66 0 1 0 C1 3.63 1 7.26 1 11 C0.01 10.67 -0.98 10.34 -2 10 C-1.34 6.7 -0.68 3.4 0 0 Z " fill="#2C2A2A" transform="translate(635,818)"/>
<path d="M0 0 C2.475 0.495 2.475 0.495 5 1 C5.33 2.65 5.66 4.3 6 6 C5.01 6 4.02 6 3 6 C0 2.66666667 0 2.66666667 0 0 Z " fill="#F0EFEE" transform="translate(749,817)"/>
<path d="M0 0 C0.33 0 0.66 0 1 0 C1.33 3.3 1.66 6.6 2 10 C1.01 10 0.02 10 -1 10 C-0.67 6.7 -0.34 3.4 0 0 Z " fill="#363333" transform="translate(698,480)"/>
<path d="M0 0 C1.485 0.99 1.485 0.99 3 2 C3.1875 5.125 3.1875 5.125 3 8 C2.34 8 1.68 8 1 8 C-0.35439668 5.29120665 -0.06501451 2.99066732 0 0 Z " fill="#302E2D" transform="translate(269,879)"/>
<path d="M0 0 C2.64 0.33 5.28 0.66 8 1 C7.67 1.66 7.34 2.32 7 3 C4.69 2.67 2.38 2.34 0 2 C0 1.34 0 0.68 0 0 Z " fill="#EDECEA" transform="translate(437,726)"/>
<path d="M0 0 C1.2065625 0.0309375 1.2065625 0.0309375 2.4375 0.0625 C2.4375 0.7225 2.4375 1.3825 2.4375 2.0625 C3.0975 2.3925 3.7575 2.7225 4.4375 3.0625 C1.5625 3.1875 1.5625 3.1875 -1.5625 3.0625 C-2.2225 2.4025 -2.8825 1.7425 -3.5625 1.0625 C-2.5625 0.0625 -2.5625 0.0625 0 0 Z " fill="#1D1C1B" transform="translate(522.5625,595.9375)"/>
<path d="M0 0 C1.65 0 3.3 0 5 0 C5.33 0.99 5.66 1.98 6 3 C4.02 3 2.04 3 0 3 C0 2.01 0 1.02 0 0 Z " fill="#2D2D2C" transform="translate(539,410)"/>
</svg>
