<?xml version="1.0" encoding="UTF-8"?>
<svg version="1.1" xmlns="http://www.w3.org/2000/svg" width="1200" height="1200">
<path d="M0 0 C10.89 0 21.78 0 33 0 C33 50.49 33 100.98 33 153 C24.09 153 15.18 153 6 153 C5.01 150.03 4.02 147.06 3 144 C1.2675 145.36125 1.2675 145.36125 -0.5 146.75 C-10.2388955 154.04556836 -19.78282735 157.09552399 -32 156 C-43.5160456 153.62276933 -52.67830049 147.78420448 -59.5390625 138.25 C-69.39042033 123.07785531 -72.41391185 103.29399545 -68.9206543 85.66992188 C-66.38363317 74.27576131 -61.99805454 63.67431281 -54 55 C-53.34 55 -52.68 55 -52 55 C-52 54.34 -52 53.68 -52 53 C-42.71655657 45.59387513 -32.03708125 40.94411568 -20 42 C-11.59691609 43.52666715 -7.56652361 45.95565093 0 51 C0 34.17 0 17.34 0 0 Z M-29 75 C-36.18769744 85.93390384 -36.60908777 99.64509662 -34.43359375 112.29296875 C-32.83048499 117.84090013 -30.80183118 122.24558543 -26.625 126.3125 C-20.73621298 129.05383189 -13.92059572 129.30909159 -7.70703125 127.234375 C-4.30464424 125.40622676 -1.82748564 123.36741591 0 120 C0.45010362 116.69767281 0.42011643 113.41838662 0.3984375 110.08984375 C0.40274277 108.644067 0.40274277 108.644067 0.40713501 107.16908264 C0.40917433 105.13411877 0.40365371 103.09913524 0.39111328 101.06420898 C0.37504049 97.94535662 0.39097566 94.82779675 0.41015625 91.70898438 C0.40817414 89.73176797 0.40433113 87.75455237 0.3984375 85.77734375 C0.40451019 84.84292953 0.41058289 83.90851532 0.4168396 82.94578552 C0.40738312 82.0780098 0.39792664 81.21023407 0.38818359 80.31616211 C0.38460342 79.17176918 0.38460342 79.17176918 0.38095093 78.0042572 C-0.10623255 75.44108984 -0.98742686 74.61625121 -3 73 C-11.41482729 68.26665965 -21.87475868 67.72934559 -29 75 Z " fill="#000000" transform="translate(878,502)"/>
<path d="M0 0 C10.56 0 21.12 0 32 0 C33 1 33 1 33.12025452 3.05641174 C33.11803391 3.96020065 33.11581329 4.86398956 33.11352539 5.79516602 C33.11344986 6.81614883 33.11337433 7.83713165 33.11329651 8.88905334 C33.10813522 9.9994548 33.10297394 11.10985626 33.09765625 12.25390625 C33.0962413 13.38448959 33.09482635 14.51507294 33.09336853 15.67991638 C33.08775019 19.30747065 33.07519458 22.93496424 33.0625 26.5625 C33.05748736 29.01497307 33.05292405 31.4674471 33.04882812 33.91992188 C33.0377748 39.94663545 33.02101884 45.97331339 33 52 C33.72590332 51.51789062 34.45180664 51.03578125 35.19970703 50.5390625 C36.16763184 49.90742187 37.13555664 49.27578125 38.1328125 48.625 C39.56197998 47.68527344 39.56197998 47.68527344 41.02001953 46.7265625 C50.63119641 41.15796977 60.92629399 41.2983112 71.5390625 43.53515625 C81.76742595 46.47009903 90.29288951 54.5173586 95.5078125 63.63671875 C100.69426363 74.5220548 102.53938232 84.79690681 102.4375 96.8125 C102.43065186 98.04919434 102.42380371 99.28588867 102.41674805 100.56005859 C102.26208441 109.34286764 101.50463998 116.86093477 98 125 C97.649375 125.88945313 97.29875 126.77890625 96.9375 127.6953125 C91.77699237 139.41396525 81.70961095 149.00788688 70 154 C62.22632133 156.98987641 53.64633209 157.30353536 45.8125 154.375 C39.51629724 151.52139843 33.88683494 147.88683494 29 143 C28.01 146.3 27.02 149.6 26 153 C17.42 153 8.84 153 0 153 C0 102.51 0 52.02 0 0 Z M33 78 C32.70848578 80.02009808 32.70848578 80.02009808 32.77294922 82.35791016 C32.77310028 83.25869293 32.77325134 84.15947571 32.77340698 85.08755493 C32.78372955 86.06155243 32.79405212 87.03554993 32.8046875 88.0390625 C32.8075174 89.03505463 32.81034729 90.03104675 32.81326294 91.05722046 C32.8244816 94.24660118 32.84958919 97.43570378 32.875 100.625 C32.88502762 102.78385012 32.89415385 104.94270463 32.90234375 107.1015625 C32.92442639 112.40113699 32.95792042 117.70054863 33 123 C34.42409454 123.82552624 35.85251355 124.64359542 37.28271484 125.45849609 C38.07769379 125.91485443 38.87267273 126.37121277 39.69174194 126.84140015 C44.59721145 129.30363622 49.70665662 128.82067339 55 128 C60.96243365 125.89313299 63.40564997 121.15127722 66.0546875 115.6953125 C69.55209443 105.72336713 69.83092447 89.96911026 66 80 C63.47955105 75.2291502 60.9038003 72.31816014 56 70 C46.79244375 68.31798972 39.5305125 71.4694875 33 78 Z " fill="#000000" transform="translate(568,502)"/>
<path d="M0 0 C1.3488873 0.00025096 2.69778106 0.00580724 4.04663086 0.01586914 C5.99194702 0.01961548 5.99194702 0.01961548 7.9765625 0.0234375 C10.46884399 0.03709351 10.46884399 0.03709351 13.01147461 0.05102539 C18.27084961 0.07165039 23.53022461 0.09227539 28.94897461 0.11352539 C28.94897461 17.93352539 28.94897461 35.75352539 28.94897461 54.11352539 C32.57897461 51.80352539 36.20897461 49.49352539 39.94897461 47.11352539 C50.93152201 42.26077189 61.54095547 40.61387023 73.22631836 44.04711914 C81.92455149 47.45403111 87.01834681 53.93173238 90.94897461 62.22290039 C93.67101899 68.97566435 94.09942004 75.83699518 94.0625 83.06835938 C94.06264603 83.83016006 94.06279205 84.59196075 94.0629425 85.37684631 C94.06225111 87.87113385 94.05449522 90.3653448 94.04663086 92.85961914 C94.04476393 94.59839334 94.04334133 96.33716807 94.04234314 98.07594299 C94.03853961 102.63464836 94.02872795 107.19332147 94.01763916 111.75201416 C94.00737836 116.41092492 94.00283554 121.06984094 93.99780273 125.72875977 C93.98710361 134.85702909 93.97005337 143.98527455 93.94897461 153.11352539 C89.40999756 153.13817931 84.87105918 153.15636328 80.33203125 153.16845703 C78.78677695 153.17349679 77.24152745 153.18032859 75.69628906 153.18896484 C73.47972432 153.20104615 71.26322243 153.20675712 69.04663086 153.21118164 C68.00443138 153.21892357 68.00443138 153.21892357 66.94117737 153.2268219 C65.27668131 153.22701816 63.61231962 153.17541668 61.94897461 153.11352539 C60.09298545 151.25753623 60.80449857 148.1819281 60.79125977 145.70117188 C60.78617905 145.03112625 60.78109833 144.36108063 60.77586365 143.67073059 C60.76513596 142.21003478 60.75652525 140.74932229 60.74974442 139.28860283 C60.73797145 136.97169769 60.71851891 134.65498033 60.69662476 132.33815002 C60.63498369 125.74860968 60.58111708 119.15908392 60.54760742 112.56933594 C60.52657208 108.54149681 60.4911883 104.51399229 60.44684982 100.48634529 C60.432748 98.95510889 60.4239806 97.4238132 60.42079544 95.89251518 C60.49153494 84.6416205 60.49153494 84.6416205 56.94897461 74.11352539 C53.13212519 71.49625722 48.44260258 71.35030955 43.94897461 72.11352539 C37.94852218 74.29714868 33.53770653 76.71504723 29.94897461 82.11352539 C29.33575088 85.47777923 29.33575088 85.47777923 29.40307617 89.19873047 C29.39273849 89.89196411 29.38240082 90.58519775 29.37174988 91.29943848 C29.34238875 93.57755017 29.34082423 95.85477085 29.33959961 98.13305664 C29.32461331 99.71776517 29.30788521 101.30245811 29.28948975 102.88713074 C29.24585391 107.04801156 29.22582567 111.20868171 29.21075439 115.36975098 C29.19116959 119.61975543 29.14920117 123.86953282 29.10913086 128.11938477 C29.03386963 136.45070549 28.98355364 144.78193695 28.94897461 153.11352539 C24.40999756 153.13817931 19.87105918 153.15636328 15.33203125 153.16845703 C13.78677695 153.17349679 12.24152745 153.18032859 10.69628906 153.18896484 C8.47972432 153.20104615 6.26322243 153.20675712 4.04663086 153.21118164 C3.00443138 153.21892357 3.00443138 153.21892357 1.94117737 153.2268219 C0.27668131 153.22701816 -1.38768038 153.17541668 -3.05102539 153.11352539 C-4.83752949 151.32702129 -4.1771902 148.68102797 -4.17800903 146.26745605 C-4.18223877 144.36175591 -4.18223877 144.36175591 -4.18655396 142.41755676 C-4.18460936 140.99655137 -4.18256117 139.57554612 -4.18041992 138.15454102 C-4.18177391 136.66834978 -4.18355383 135.18215888 -4.18572998 133.69596863 C-4.19030461 129.6485608 -4.18851463 125.60117836 -4.18535089 121.55377007 C-4.18282745 117.32747197 -4.18516479 113.10117611 -4.18673706 108.87487793 C-4.1885588 101.77620044 -4.18615233 94.67753334 -4.18139648 87.57885742 C-4.17595386 79.35991728 -4.17771651 71.14100194 -4.18322289 62.9220624 C-4.18775389 55.87834602 -4.18840463 48.83463714 -4.18578422 41.79091978 C-4.18422138 37.57836723 -4.18402788 33.36582635 -4.18732071 29.15327454 C-4.19019924 25.19382371 -4.18822407 21.234405 -4.18242645 17.27495766 C-4.18109876 15.81762559 -4.18149313 14.36029084 -4.18368912 12.90295982 C-4.18640021 10.92183907 -4.18240616 8.94071245 -4.17800903 6.95959473 C-4.17763201 5.84828941 -4.17725498 4.7369841 -4.17686653 3.59200287 C-3.99076605 -0.07329961 -3.73585191 0.13900705 0 0 Z " fill="#000000" transform="translate(448.051025390625,501.886474609375)"/>
<path d="M0 0 C10.89 0 21.78 0 33 0 C33.02291623 7.51143107 33.04284138 15.02274156 33.05493164 22.53417969 C33.05997017 25.09115001 33.06680107 27.64811743 33.07543945 30.20507812 C33.08752602 33.87370517 33.09323301 37.54229423 33.09765625 41.2109375 C33.10281754 42.35992523 33.10797882 43.50891296 33.11329651 44.69271851 C33.11337204 45.7536673 33.11344757 46.81461609 33.11352539 47.90771484 C33.115746 48.84481293 33.11796661 49.78191101 33.12025452 50.74740601 C33 53 33 53 32 55 C32.73863281 54.46890625 33.47726562 53.9378125 34.23828125 53.390625 C45.76987127 45.3610045 56.8921063 40.59462172 71.2109375 42.40625 C80.10625456 44.28838258 86.0292555 47.91079071 91.3125 55.3125 C96.62746353 63.8915444 98.16427974 72.84952638 98.11352539 82.84130859 C98.11367142 83.60296326 98.11381744 84.36461792 98.1139679 85.14935303 C98.11327518 87.64907754 98.10551299 90.14872612 98.09765625 92.6484375 C98.09578979 94.38864094 98.09436696 96.12884491 98.09336853 97.86904907 C98.08956131 102.43598903 98.07974642 107.00289689 98.06866455 111.56982422 C98.05841177 116.23534715 98.05386264 120.90087529 98.04882812 125.56640625 C98.03812247 134.71095383 98.02054028 143.85546922 98 153 C87.11 153 76.22 153 65 153 C64.96261719 147.9675 64.92523437 142.935 64.88671875 137.75 C64.85642193 134.55074782 64.82526297 131.35155013 64.79101562 128.15234375 C64.73680787 123.08092074 64.68569357 118.0096055 64.65356445 112.93798828 C64.62744365 108.84644196 64.58698018 104.75526008 64.53681374 100.66394043 C64.52020409 99.10759027 64.5086532 97.55117715 64.50238609 95.99475098 C64.56863327 84.63122431 64.56863327 84.63122431 61 74 C57.16783475 71.37222954 52.51462001 71.34582429 48 72 C42.15179784 73.80620601 37.97798078 76.26432301 34 81 C33.24317157 84.39772674 33.24317157 84.39772674 33.34057617 88.17700195 C33.32485062 89.23148277 33.32485062 89.23148277 33.30880737 90.30726624 C33.28013293 92.61805777 33.28633908 94.92734423 33.29296875 97.23828125 C33.27984893 98.84541189 33.26454383 100.45252606 33.24714661 102.05961609 C33.20731615 106.27976184 33.19710749 110.49947606 33.19311523 114.7197876 C33.18378002 119.03012161 33.1463641 123.34020246 33.11132812 127.65039062 C33.04677227 136.1002651 33.0135159 144.54989046 33 153 C28.46102295 153.02465392 23.92208457 153.04283789 19.38305664 153.05493164 C17.83780234 153.0599714 16.29255284 153.0668032 14.74731445 153.07543945 C12.53074971 153.08752076 10.31424782 153.09323173 8.09765625 153.09765625 C7.05545677 153.10539818 7.05545677 153.10539818 5.99220276 153.11329651 C4.3277067 153.11349277 2.66334501 153.06189129 1 153 C0 152 0 152 -0.12304783 149.50311184 C-0.12212604 148.38313336 -0.12120424 147.26315489 -0.12025452 146.10923767 C-0.12162918 144.82891159 -0.12300385 143.54858551 -0.12442017 142.22946167 C-0.12088055 140.79742409 -0.11724573 139.36538674 -0.11352539 137.93334961 C-0.11324353 136.43568422 -0.11340124 134.9380187 -0.1139679 133.44035339 C-0.11425591 129.36201828 -0.10835864 125.28371233 -0.10139394 121.20538402 C-0.09516095 116.94792372 -0.09455665 112.69046282 -0.09336853 108.43299866 C-0.09025505 100.36526813 -0.08204144 92.29755109 -0.07201904 84.22982651 C-0.06085842 75.04739221 -0.05534758 65.86495728 -0.05032361 56.68251789 C-0.03985884 37.78833605 -0.02151315 18.89417271 0 0 Z " fill="#000000" transform="translate(938,502)"/>
<path d="M0 0 C1.0374939 0.00303635 1.0374939 0.00303635 2.09594727 0.00613403 C2.80243408 0.00517731 3.5089209 0.00422058 4.23681641 0.00323486 C5.7331552 0.00255321 7.22949694 0.00440649 8.72583008 0.00857544 C11.02374884 0.01392396 13.32147213 0.00863003 15.61938477 0.00222778 C17.06990603 0.00288857 18.52042718 0.00416974 19.97094727 0.00613403 C20.66260986 0.0041098 21.35427246 0.00208557 22.06689453 0 C26.91849503 0.0239943 26.91849503 0.0239943 28.03344727 1.13894653 C28.14174152 3.34614538 28.17975855 5.55680757 28.19116211 7.76663208 C28.19624283 8.45939743 28.20132355 9.15216278 28.20655823 9.86592102 C28.2172851 11.3757315 28.22589613 12.88555811 28.23267746 14.39539146 C28.24444227 16.78735593 28.26389098 19.17913784 28.28579712 21.57102966 C28.34747787 28.37379853 28.40138026 35.17655191 28.43481445 41.97952271 C28.45579992 46.13702573 28.49114091 50.29420148 28.53557205 54.45151711 C28.54970937 56.03464711 28.55844937 57.61783507 28.56162643 59.20102501 C28.5665538 61.42245882 28.58975938 63.64303066 28.61694336 65.86428833 C28.62503021 67.12702072 28.63311707 68.38975311 28.64144897 69.69075012 C29.17838023 74.41384322 30.66897548 77.77447475 34.03344727 81.13894653 C41.0195683 82.15999499 46.63249164 81.66479217 52.41235352 77.52566528 C56.03460856 74.42788327 56.03460856 74.42788327 58.03344727 70.13894653 C58.15157222 67.88554988 58.21041372 65.62890158 58.23876953 63.37258911 C58.24866913 62.68940109 58.25856873 62.00621307 58.26876831 61.30232239 C58.30033405 59.046076 58.32512117 56.78980857 58.34985352 54.53347778 C58.3704273 52.96834265 58.39142389 51.40321301 58.41282654 49.83808899 C58.46800336 45.71997537 58.51743197 41.60181198 58.56567383 37.48361206 C58.61592091 33.28078789 58.67159023 29.07803596 58.72680664 24.87527466 C58.83433452 16.62989303 58.9357914 8.38445096 59.03344727 0.13894653 C63.57242432 0.11429261 68.1113627 0.09610865 72.65039062 0.08401489 C74.19564492 0.07897514 75.74089443 0.07214334 77.28613281 0.06350708 C79.50269755 0.05142577 81.71919945 0.04571481 83.93579102 0.04129028 C84.63059067 0.036129 85.32539032 0.03096771 86.04124451 0.02565002 C87.70574056 0.02545377 89.37010225 0.07705524 91.03344727 0.13894653 C92.57938296 1.68488223 92.1593896 3.12384727 92.16043091 5.27664185 C92.16466064 6.6143866 92.16466064 6.6143866 92.16897583 7.97915649 C92.16593948 9.45817444 92.16593948 9.45817444 92.1628418 10.96707153 C92.16547028 12.51569885 92.16547028 12.51569885 92.16815186 14.09561157 C92.17257259 17.52674005 92.1696316 20.95781748 92.16625977 24.38894653 C92.16693274 26.76166799 92.16790271 29.13438938 92.16915894 31.5071106 C92.17063621 36.48726048 92.1684804 41.46739247 92.16381836 46.44754028 C92.15812106 52.84723332 92.16139991 59.24688443 92.16739082 65.64657593 C92.17099564 70.54829222 92.16985822 75.4499985 92.16726303 80.35171509 C92.16659354 82.71214808 92.16742295 85.07258197 92.16974258 87.43301392 C92.17226781 90.72564116 92.16843035 94.01819946 92.1628418 97.31082153 C92.16486603 98.2968335 92.16689026 99.28284546 92.16897583 100.29873657 C92.16615601 101.19056641 92.16333618 102.08239624 92.16043091 103.00125122 C92.15986537 104.17044098 92.15986537 104.17044098 92.15928841 105.36325073 C92.03344727 107.13894653 92.03344727 107.13894653 91.03344727 108.13894653 C89.10677219 108.22642861 87.17692866 108.24591987 85.24829102 108.23660278 C83.49355469 108.2317688 83.49355469 108.2317688 81.70336914 108.22683716 C80.47166992 108.21845825 79.2399707 108.21007935 77.97094727 108.20144653 C76.11759766 108.19467896 76.11759766 108.19467896 74.22680664 108.18777466 C71.1623061 108.17594261 68.09790005 108.15945827 65.03344727 108.13894653 C63.32089763 104.11757492 62.61675074 100.47205809 62.03344727 96.13894653 C61.70344727 95.80894653 61.37344727 95.47894653 61.03344727 95.13894653 C60.57969727 95.81957153 60.12594727 96.50019653 59.65844727 97.20144653 C52.50309658 105.20862468 43.05330213 110.41609524 32.35375977 111.51785278 C22.23126603 111.83354424 14.63978861 110.32116525 6.72094727 103.88894653 C-3.95436198 93.73018451 -5.2848268 81.26828779 -5.96655273 67.13894653 C-6.09349907 61.8821218 -6.10809831 56.62744639 -6.09936523 51.36941528 C-6.10004093 49.91208378 -6.10101316 48.45475239 -6.1022644 46.99742126 C-6.1037228 43.97809755 -6.10164345 40.95880382 -6.09692383 37.93948364 C-6.09116049 34.06353281 -6.09455831 30.18765024 -6.10049629 26.31170177 C-6.1040959 23.31869483 -6.10296726 20.32570433 -6.1003685 17.33269691 C-6.09970099 15.9016958 -6.10052154 14.47069321 -6.10284805 13.03969383 C-6.10537177 11.0560954 -6.10084702 9.0724917 -6.09594727 7.08889771 C-6.09515167 5.96086227 -6.09435608 4.83282684 -6.09353638 3.67060852 C-5.87033477 -0.77934272 -3.974916 0.01965852 0 0 Z " fill="#000000" transform="translate(695.966552734375,546.8610534667969)"/>
<path d="M0 0 C4.06518711 3.70677154 6.13485227 8.37628008 8.25 13.375 C8.60449219 14.15746094 8.95898438 14.93992187 9.32421875 15.74609375 C11.3306828 21.44377437 11.39406548 27.34808183 11.36352539 33.32983398 C11.36367142 34.09163467 11.36381744 34.85343536 11.3639679 35.63832092 C11.3632765 38.13260846 11.35552061 40.62681941 11.34765625 43.12109375 C11.34578932 44.85986795 11.34436672 46.59864268 11.34336853 48.3374176 C11.339565 52.89612297 11.32975334 57.45479608 11.31866455 62.01348877 C11.30840375 66.67239953 11.30386093 71.33131555 11.29882812 75.99023438 C11.288129 85.11850598 11.27054988 94.24674525 11.25 103.375 C0.36 103.375 -10.53 103.375 -21.75 103.375 C-21.78738281 98.3425 -21.82476562 93.31 -21.86328125 88.125 C-21.89357807 84.92574782 -21.92473703 81.72655013 -21.95898438 78.52734375 C-22.01319213 73.45592074 -22.06430643 68.3846055 -22.09643555 63.31298828 C-22.12255635 59.22144196 -22.16301982 55.13026008 -22.21318626 51.03894043 C-22.22979591 49.48259027 -22.2413468 47.92617715 -22.24761391 46.36975098 C-22.18136673 35.00622431 -22.18136673 35.00622431 -25.75 24.375 C-29.58216525 21.74722954 -34.23537999 21.72082429 -38.75 22.375 C-44.59820216 24.18120601 -48.77201922 26.63932301 -52.75 31.375 C-53.50682843 34.77272674 -53.50682843 34.77272674 -53.40942383 38.55200195 C-53.42514938 39.60648277 -53.42514938 39.60648277 -53.44119263 40.68226624 C-53.46986707 42.99305777 -53.46366092 45.30234423 -53.45703125 47.61328125 C-53.47015107 49.22041189 -53.48545617 50.82752606 -53.50285339 52.43461609 C-53.54268385 56.65476184 -53.55289251 60.87447606 -53.55688477 65.0947876 C-53.56621998 69.40512161 -53.6036359 73.71520246 -53.63867188 78.02539062 C-53.70322773 86.4752651 -53.7364841 94.92489046 -53.75 103.375 C-58.28897705 103.39965392 -62.82791543 103.41783789 -67.36694336 103.42993164 C-68.91219766 103.4349714 -70.45744716 103.4418032 -72.00268555 103.45043945 C-74.21925029 103.46252076 -76.43575218 103.46823173 -78.65234375 103.47265625 C-79.69454323 103.48039818 -79.69454323 103.48039818 -80.75779724 103.48829651 C-82.4222933 103.48849277 -84.08665499 103.43689129 -85.75 103.375 C-87.29593569 101.82906431 -86.87594233 100.39009926 -86.87698364 98.23730469 C-86.87980347 97.34547485 -86.88262329 96.45364502 -86.88552856 95.53479004 C-86.88350433 94.54877808 -86.8814801 93.56276611 -86.87939453 92.546875 C-86.88114685 91.51445679 -86.88289917 90.48203857 -86.88470459 89.41833496 C-86.88912533 85.98720648 -86.88618433 82.55612906 -86.8828125 79.125 C-86.88348548 76.75227854 -86.88445545 74.37955716 -86.88571167 72.00683594 C-86.88718894 67.02668605 -86.88503314 62.04655406 -86.88037109 57.06640625 C-86.8746738 50.66671321 -86.87795264 44.2670621 -86.88394356 37.86737061 C-86.88754837 32.96565431 -86.88641095 28.06394804 -86.88381577 23.16223145 C-86.88314628 20.80179845 -86.88397568 18.44136456 -86.88629532 16.08093262 C-86.88882054 12.78830537 -86.88498309 9.49574708 -86.87939453 6.203125 C-86.88141876 5.21711304 -86.88344299 4.23110107 -86.88552856 3.21520996 C-86.88270874 2.32338013 -86.87988892 1.43155029 -86.87698364 0.51269531 C-86.87660662 -0.26676453 -86.87622959 -1.04622437 -86.87584114 -1.8493042 C-86.75 -3.625 -86.75 -3.625 -85.75 -4.625 C-83.82332493 -4.71248207 -81.89348139 -4.73197334 -79.96484375 -4.72265625 C-78.21010742 -4.71782227 -78.21010742 -4.71782227 -76.41992188 -4.71289062 C-74.57237305 -4.70032227 -74.57237305 -4.70032227 -72.6875 -4.6875 C-70.83415039 -4.68073242 -70.83415039 -4.68073242 -68.94335938 -4.67382812 C-65.87885883 -4.66199608 -62.81445279 -4.64551173 -59.75 -4.625 C-57.46853675 -0.31469227 -57.58827561 2.52326823 -57.75 7.375 C-53.8772897 5.27728192 -50.41644478 3.15615546 -47 0.375 C-33.33669437 -10.12501113 -13.66414132 -10.35073366 0 0 Z " fill="#000000" transform="translate(251.75,551.625)"/>
<path d="M0 0 C3.43826872 2.92630993 5.96140713 6.1280964 8.30859375 9.96484375 C8.78416214 10.6710083 9.25973053 11.37717285 9.74971008 12.10473633 C15.7631361 23.13765991 15.88810486 36.65611208 15.734375 48.90234375 C15.72943272 50.44506402 15.72614586 51.98779037 15.72441101 53.53051758 C15.71686753 56.7204183 15.69658618 59.90985457 15.6652832 63.09960938 C15.6251716 67.19408634 15.60757753 71.28826785 15.59797382 75.38291931 C15.58804743 79.30610067 15.56818937 83.22921013 15.546875 87.15234375 C15.54178138 88.27236282 15.54178138 88.27236282 15.53658485 89.41500854 C15.52507561 91.5085325 15.50657906 93.60186474 15.4855957 95.6953125 C15.4757515 96.88535889 15.46590729 98.07540527 15.45576477 99.30151367 C15.30859375 101.96484375 15.30859375 101.96484375 14.30859375 102.96484375 C12.38191868 103.05232582 10.45207514 103.07181709 8.5234375 103.0625 C6.76870117 103.05766602 6.76870117 103.05766602 4.97851562 103.05273438 C3.74681641 103.04435547 2.51511719 103.03597656 1.24609375 103.02734375 C-0.60725586 103.02057617 -0.60725586 103.02057617 -2.49804688 103.01367188 C-5.56254742 103.00183983 -8.62695346 102.98535548 -11.69140625 102.96484375 C-13.20961318 99.40841414 -13.91349415 96.85138202 -13.69140625 92.96484375 C-14.57441406 93.568125 -15.45742187 94.17140625 -16.3671875 94.79296875 C-27.68356804 102.39271821 -37.58657982 107.66360022 -51.69140625 105.96484375 C-60.98814406 103.71873268 -67.86297793 99.88979779 -73.50390625 92.15234375 C-78.684291 83.47549164 -79.75346592 73.29068232 -77.69140625 63.46484375 C-74.83312378 54.2810579 -68.8247067 47.93722026 -60.69140625 42.96484375 C-56.44967777 40.98106959 -52.1397043 39.41899185 -47.69140625 37.96484375 C-46.38236328 37.51818359 -46.38236328 37.51818359 -45.046875 37.0625 C-36.48478391 34.41890506 -27.57385242 33.79543553 -18.69140625 32.96484375 C-19.85948197 26.70132072 -19.85948197 26.70132072 -23.30078125 21.98046875 C-35.01318897 17.79135942 -45.73796983 21.0196214 -56.69140625 25.96484375 C-57.39136719 26.36832031 -58.09132813 26.77179687 -58.8125 27.1875 C-61.26867002 28.20367013 -62.23798464 27.94257813 -64.69140625 26.96484375 C-66.06347656 25.10717773 -66.06347656 25.10717773 -67.26953125 22.7109375 C-67.7078125 21.85693359 -68.14609375 21.00292969 -68.59765625 20.12304688 C-69.2628125 18.77629883 -69.2628125 18.77629883 -69.94140625 17.40234375 C-70.4003125 16.50064453 -70.85921875 15.59894531 -71.33203125 14.66992188 C-72.4642752 12.4408166 -73.58331913 10.20602909 -74.69140625 7.96484375 C-58.06520687 -10.22986501 -19.8485476 -13.95001934 0 0 Z M-44.00390625 63.21484375 C-46.06623048 66.57566843 -46.54858887 69.0373658 -46.69140625 72.96484375 C-45.9028452 75.61727637 -45.30666847 76.58204486 -42.96484375 78.0390625 C-38.367387 79.91122272 -33.53891537 79.68074622 -28.69140625 78.96484375 C-24.41783835 76.9602637 -21.01476719 74.28820469 -17.69140625 70.96484375 C-17.5463293 68.21998782 -17.50488202 65.58003832 -17.56640625 62.83984375 C-17.57542969 62.08574219 -17.58445312 61.33164062 -17.59375 60.5546875 C-17.61733755 58.69127121 -17.65320906 56.82801782 -17.69140625 54.96484375 C-27.07336767 54.75569174 -37.00456798 56.40467679 -44.00390625 63.21484375 Z " fill="#000000" transform="translate(124.69140625,552.03515625)"/>
<path d="M0 0 C9.14100807 8.01182472 12.52532578 19.27199574 14 31 C14.25963872 36.53763656 14.23433347 42.06312234 14.1953125 47.60546875 C14.19157384 49.18158283 14.18873091 50.75769927 14.18673706 52.33381653 C14.17916766 56.44534937 14.15957822 60.55673678 14.1373291 64.66821289 C14.11672494 68.87839797 14.10770445 73.08860696 14.09765625 77.29882812 C14.07632471 85.53262566 14.04119872 93.76627788 14 102 C5.09 102 -3.82 102 -13 102 C-14.683989 97.7900275 -15.24059853 96.21047434 -15 92 C-15.6290625 92.45890625 -16.258125 92.9178125 -16.90625 93.390625 C-28.46297714 101.67526674 -38.41937076 106.32860874 -53 105 C-62.48056791 103.02903983 -69.17753115 98.16507155 -74.890625 90.4453125 C-79.93899503 81.92913688 -80.50378944 72.63866274 -79 63 C-77.82442139 59.22431811 -76.27420741 56.21959015 -74 53 C-73.4225 52.0925 -72.845 51.185 -72.25 50.25 C-60.196604 38.196604 -42.54117248 34.28670401 -26.1875 32.52734375 C-22.85516881 32.20060562 -22.85516881 32.20060562 -20 30 C-21.7545353 24.88002116 -21.7545353 24.88002116 -25.4375 21.125 C-34.13639855 17.30597137 -43.43374403 19.13597824 -52.0625 22.4375 C-54.84284014 23.58881514 -57.51409336 24.71991017 -60.12109375 26.22265625 C-62.56124474 27.23219897 -63.55439017 26.93399732 -66 26 C-68.02380411 23.50998522 -69.35027115 20.59910936 -70.8125 17.75 C-71.23208984 16.98558594 -71.65167969 16.22117187 -72.08398438 15.43359375 C-73.72790488 12.29741592 -74.92911978 9.75535042 -75.26171875 6.2109375 C-73.17833696 2.5601818 -69.76164798 1.48092825 -66 -0.125 C-65.21979492 -0.47191895 -64.43958984 -0.81883789 -63.63574219 -1.17626953 C-61.43363146 -2.14308349 -59.22165697 -3.07913928 -57 -4 C-55.67742187 -4.54914062 -55.67742187 -4.54914062 -54.328125 -5.109375 C-37.18967048 -11.42354246 -14.82521101 -11.66356207 0 0 Z M-34.1875 56.25 C-35.35667969 56.66765625 -36.52585937 57.0853125 -37.73046875 57.515625 C-41.58738061 59.2666722 -45.05556793 61.11113586 -47 65 C-47.59373749 69.39365739 -47.79804008 72.83144131 -45.25 76.5625 C-39.76192092 78.98991959 -33.51796946 79.2269075 -27.8046875 77.234375 C-25.72540823 76.15628714 -25.72540823 76.15628714 -23 74 C-22.28328125 73.46375 -21.5665625 72.9275 -20.828125 72.375 C-18.22234344 68.98971113 -18.56261162 65.82930094 -18.75 61.75 C-18.77707031 60.63238281 -18.77707031 60.63238281 -18.8046875 59.4921875 C-18.85164351 57.66090299 -18.92338348 55.83028351 -19 54 C-24.64848508 53.77629762 -28.80828272 54.26786888 -34.1875 56.25 Z " fill="#000000" transform="translate(1136,553)"/>
<path d="M0 0 C12.67479957 0.51238551 26.39287071 4.32877252 35.984375 13.0625 C36.34015625 13.475 36.6959375 13.8875 37.0625 14.3125 C35.33733885 18.2696493 32.74788806 21.54629119 30.125 24.9375 C29.46081055 25.81535156 29.46081055 25.81535156 28.78320312 26.7109375 C26.68262412 29.44075105 24.95337806 31.38524796 22.0625 33.3125 C21.38703125 32.96316406 20.7115625 32.61382813 20.015625 32.25390625 C19.12359375 31.79886719 18.2315625 31.34382812 17.3125 30.875 C16.43078125 30.42253906 15.5490625 29.97007812 14.640625 29.50390625 C9.89839392 27.31242067 5.79830617 27.0979137 0.5625 27 C-0.7471875 26.96261719 -2.056875 26.92523437 -3.40625 26.88671875 C-6.96964588 27.01972083 -6.96964588 27.01972083 -9.3984375 29.14453125 C-11.20874034 31.27782643 -11.20874034 31.27782643 -11.0625 34.3125 C-9.54026433 38.37179511 -7.66867703 39.15145629 -3.9375 41.3125 C-1.19102837 42.4590919 1.60705702 43.39587968 4.4375 44.3125 C17.62517345 48.62932836 29.40937653 54.457715 36.0625 67.3125 C38.7931226 75.06611972 38.16710966 85.89854441 35 93.375 C29.40024637 103.79459728 20.13148743 109.5092961 9.0625 113.1875 C-8.42708655 117.32911393 -25.38534032 113.67507274 -40.71875 104.73828125 C-43.27896094 103.09307527 -45.67035771 101.34511033 -47.9375 99.3125 C-47.46786969 94.43119107 -46.23607615 91.89581792 -43.0625 88.1875 C-42.01449219 86.94613281 -42.01449219 86.94613281 -40.9453125 85.6796875 C-39.95144531 84.50792969 -39.95144531 84.50792969 -38.9375 83.3125 C-37.92675137 81.98729625 -36.92256885 80.65690215 -35.9375 79.3125 C-32.92166902 80.44343662 -30.09132913 81.74576693 -27.25 83.25 C-18.25407874 87.73955323 -8.1037905 90.50191831 1.82421875 87.46875 C4.33690176 86.43916178 4.33690176 86.43916178 5.5625 83.5 C6.30401608 80.36705647 6.30401608 80.36705647 5.1875 77.6875 C1.07863759 73.09524201 -4.62733059 71.42333947 -10.25073242 69.25244141 C-23.02312825 64.29031813 -35.093204 58.78753835 -41.62109375 46.01953125 C-44.39204006 38.21648065 -44.42893121 28.42051732 -40.9375 20.8125 C-35.44327187 11.69116305 -27.93433181 5.92180745 -17.9375 2.3125 C-11.98836875 0.97039664 -6.06644023 0.48146351 0 0 Z " fill="#000000" transform="translate(387.9375,543.6875)"/>
<path d="M0 0 C10.56 0 21.12 0 32 0 C33 1 33 1 33.12304783 2.79410648 C33.12166514 3.97630599 33.12166514 3.97630599 33.12025452 5.18238831 C33.12162918 6.08407745 33.12300385 6.9857666 33.12442017 7.91477966 C33.11902725 9.41018028 33.11902725 9.41018028 33.11352539 10.93579102 C33.11367142 11.97956909 33.11381744 13.02334717 33.1139679 14.09875488 C33.11326826 17.56715943 33.10547353 21.03551103 33.09765625 24.50390625 C33.09579225 26.90144318 33.09436826 29.2989805 33.09336853 31.69651794 C33.08954194 38.02095584 33.07971046 44.34537094 33.06866455 50.6697998 C33.05845345 57.11775402 33.05387156 63.56571191 33.04882812 70.01367188 C33.03808831 82.6757929 33.02049038 95.33789099 33 108 C22.11 108 11.22 108 0 108 C0 72.36 0 36.72 0 0 Z " fill="#000000" transform="translate(289,547)"/>
<path d="M0 0 C3.5430054 2.73245935 5.27033999 6.11961372 6.65625 10.27734375 C7.19456595 16.62947195 6.29772114 20.97959057 2.65625 26.27734375 C-2.91563957 31.57743382 -7.7707297 31.57046828 -15.17578125 31.48828125 C-19.74551802 31.18400778 -22.56871167 30.10101327 -25.76953125 26.8125 C-30.37346136 21.50825377 -30.69070145 18.12752001 -30.625 11.26171875 C-30.12737963 5.98141375 -27.5951323 3.43487238 -23.84375 -0.03515625 C-16.99557801 -4.65767235 -6.99132343 -4.02574157 0 0 Z " fill="#000000" transform="translate(317.34375,500.72265625)"/>
</svg>
